<svg width="443" height="129" xmlns="http://www.w3.org/2000/svg"><g fill="none" fill-rule="evenodd"><path d="M192.234 50.622c-.366-1.667-.966-3.162-1.8-4.483a12.255 12.255 0 0 0-3.05-3.325 13.59 13.59 0 0 0-3.964-2.044 14.654 14.654 0 0 0-4.545-.701c-2.887 0-5.368.549-7.442 1.647-2.074 1.098-3.772 2.552-5.094 4.361-1.321 1.81-2.297 3.854-2.928 6.131a26.176 26.176 0 0 0-.945 7.015c0 2.359.315 4.687.945 6.984.63 2.298 1.607 4.352 2.928 6.162 1.322 1.81 3.02 3.263 5.094 4.361 2.074 1.098 4.555 1.647 7.442 1.647 2.033 0 3.863-.366 5.49-1.098a13.002 13.002 0 0 0 4.209-2.989c1.18-1.26 2.135-2.735 2.867-4.422.732-1.688 1.2-3.508 1.403-5.46h4.148c-.285 2.684-.915 5.104-1.891 7.259-.976 2.155-2.237 3.985-3.782 5.49-1.545 1.505-3.365 2.664-5.46 3.477-2.094.813-4.422 1.22-6.984 1.22-3.416 0-6.415-.62-8.998-1.86-2.582-1.24-4.727-2.898-6.435-4.972-1.708-2.074-2.989-4.473-3.843-7.198-.854-2.725-1.281-5.592-1.281-8.601 0-3.01.427-5.876 1.281-8.601.854-2.725 2.135-5.134 3.843-7.228 1.708-2.095 3.853-3.762 6.435-5.002 2.583-1.24 5.582-1.861 8.998-1.861 2.074 0 4.097.305 6.07.915a17.574 17.574 0 0 1 5.368 2.715 15.819 15.819 0 0 1 4.026 4.422c1.077 1.749 1.758 3.762 2.043 6.039h-4.148zm11.282-13.176h4.148V60.87l25.315-23.424h5.612l-19.459 17.995L239.506 81h-5.368l-18.117-22.692-8.357 7.747V81h-4.148V37.446zm39.708 0h30.073v3.538h-25.925v15.738h24.278v3.538h-24.278v17.202h26.23V81h-30.378V37.446zM306.539 81h-3.538v-5.978h-.122a9.043 9.043 0 0 1-1.8 2.806 11.677 11.677 0 0 1-2.714 2.165 14.036 14.036 0 0 1-3.264 1.373 12.708 12.708 0 0 1-3.446.488c-2.4 0-4.483-.437-6.252-1.311a12.523 12.523 0 0 1-4.423-3.6c-1.18-1.525-2.054-3.293-2.623-5.306-.57-2.014-.854-4.138-.854-6.375s.285-4.361.854-6.374c.57-2.014 1.444-3.782 2.623-5.307 1.18-1.526 2.653-2.735 4.422-3.63 1.77-.895 3.854-1.342 6.253-1.342 1.18 0 2.328.142 3.447.427a11.55 11.55 0 0 1 3.141 1.311 11.05 11.05 0 0 1 2.593 2.166 9.1 9.1 0 0 1 1.738 2.989h.122V37.446h3.843V81zm-25.193-15.738c0 1.627.193 3.243.58 4.85.386 1.606.996 3.04 1.83 4.3a10.077 10.077 0 0 0 3.202 3.08c1.301.794 2.867 1.19 4.697 1.19 2.033 0 3.751-.396 5.155-1.19 1.403-.793 2.541-1.82 3.416-3.08.874-1.26 1.504-2.694 1.89-4.3a20.67 20.67 0 0 0 .58-4.85 20.67 20.67 0 0 0-.58-4.85c-.386-1.606-1.016-3.04-1.89-4.3-.875-1.26-2.013-2.287-3.416-3.08-1.404-.794-3.122-1.19-5.155-1.19-1.83 0-3.396.396-4.697 1.19a10.077 10.077 0 0 0-3.203 3.08c-.833 1.26-1.443 2.694-1.83 4.3a20.67 20.67 0 0 0-.579 4.85zM314.1 37.446h3.843v6.161H314.1v-6.161zm0 12.078h3.843V81H314.1V49.524zm17.504 0h6.405v3.233h-6.405v21.228c0 1.26.173 2.247.519 2.959.345.711 1.21 1.108 2.592 1.189 1.098 0 2.196-.061 3.294-.183v3.233c-.57 0-1.139.02-1.708.061-.57.04-1.139.061-1.708.061-2.562 0-4.351-.498-5.368-1.495-1.017-.996-1.505-2.836-1.464-5.52V52.757h-5.49v-3.233h5.49v-9.455h3.843v9.455zm25.434 2.318c-1.83 0-3.436.386-4.819 1.159a10.58 10.58 0 0 0-3.447 3.05c-.915 1.26-1.606 2.694-2.073 4.3a17.48 17.48 0 0 0-.702 4.911c0 1.667.234 3.304.702 4.91.467 1.607 1.158 3.04 2.073 4.301a10.58 10.58 0 0 0 3.447 3.05c1.383.773 2.989 1.159 4.819 1.159s3.436-.386 4.819-1.159a10.58 10.58 0 0 0 3.446-3.05c.916-1.26 1.607-2.694 2.075-4.3a17.48 17.48 0 0 0 .701-4.911 17.48 17.48 0 0 0-.702-4.91c-.467-1.607-1.158-3.04-2.074-4.301a10.58 10.58 0 0 0-3.446-3.05c-1.383-.773-2.989-1.159-4.819-1.159zm0-3.233c2.4 0 4.524.447 6.375 1.342 1.85.895 3.405 2.094 4.666 3.599 1.26 1.505 2.216 3.263 2.867 5.277.65 2.013.976 4.158.976 6.435 0 2.277-.325 4.422-.976 6.436-.65 2.013-1.606 3.771-2.867 5.276-1.26 1.505-2.816 2.694-4.666 3.569-1.85.874-3.976 1.311-6.375 1.311-2.4 0-4.524-.437-6.375-1.311-1.85-.875-3.405-2.064-4.666-3.569-1.26-1.505-2.216-3.263-2.867-5.276-.65-2.014-.976-4.159-.976-6.436s.325-4.422.976-6.435c.65-2.014 1.606-3.772 2.867-5.277 1.26-1.505 2.816-2.704 4.666-3.599 1.85-.895 3.976-1.342 6.375-1.342zm20.798.915h3.538v7.381h.122c.976-2.562 2.49-4.534 4.545-5.917 2.053-1.383 4.503-2.013 7.35-1.891v3.843c-1.749-.081-3.335.152-4.758.702-1.423.549-2.653 1.331-3.69 2.348a10.598 10.598 0 0 0-2.41 3.63c-.57 1.403-.854 2.938-.854 4.605V81h-3.843V49.524zm54.406 17.629V43.912h-.122l-16.104 23.241h16.226zm-19.703-.488L432.303 38.3h3.477v28.853h6.405v3.233h-6.405V81h-3.538V70.386h-19.703v-3.721z" fill="#32373C"/><path d="M91.399 18.428a25.395 25.395 0 0 0-2.641 11.314c0 14.084 11.416 25.5 25.5 25.5.182 0 .363-.001.544-.005V90.95a12 12 0 0 1-6 10.392l-45.105 26.041a12 12 0 0 1-12 0L6.592 101.343a12 12 0 0 1-6-10.392V38.868a12 12 0 0 1 6-10.393L51.697 2.434a12 12 0 0 1 12 0l27.702 15.994zm-58.52 23.814a3 3 0 0 0-3 3v1.432a3 3 0 0 0 3 3h50.666a3 3 0 0 0 3-3v-1.432a3 3 0 0 0-3-3H32.88zm0 18.478a3 3 0 0 0-3 3v1.432a3 3 0 0 0 3 3H69.61a3 3 0 0 0 3-3V63.72a3 3 0 0 0-3-3H32.879zm0 18.478a3 3 0 0 0-3 3v1.432a3 3 0 0 0 3 3h50.666a3 3 0 0 0 3-3v-1.432a3 3 0 0 0-3-3H32.88zm81.879-28.956c-11.598 0-21-9.402-21-21s9.402-21 21-21 21 9.402 21 21-9.402 21-21 21zm3.574-15.67h2.213v-3.325h-2.236v-10.61h-4.586l-6.571 10.487v3.448h7.598v3.373h3.582v-3.373zm-3.56-9.73v6.405h-3.901l3.833-6.406h.069z" fill="#0287D0"/></g></svg>