<svg width="283" height="283" xmlns="http://www.w3.org/2000/svg" xmlns:xlink="http://www.w3.org/1999/xlink"><defs><path id="a" d="M0 284h283.46V.54H0z"/></defs><g fill="none" fill-rule="evenodd"><path fill="#020000" d="M0 283.46h283.46V0H0z"/><g transform="translate(0 -.54)"><path d="M229.986 212.496c-9.85 0-15.69-5.046-16.048-12.175h9.244c0 2.214 1.413 5.508 7.37 5.606 3.978 0 5.872-2.344 5.872-4.095-.253-2.793-3.762-3.04-7.512-3.633-3.73-.579-6.902-1.282-9.232-2.448-2.929-1.524-4.935-4.811-4.935-8.541 0-6.312 5.514-11.364 14.648-11.364 8.894 0 14.505 4.694 15.091 11.591h-8.893c-.124-1.868-.468-4.788-5.735-4.788-3.516 0-5.84.703-6.074 3.16 0 3.621 7.362 3.393 13.092 4.897 5.501 1.399 9.016 4.817 9.016 9.615 0 8.77-7.14 12.175-15.904 12.175M60.037 153.743l30.778-17.685 16.266 28.095H66.008z" fill="#FFFFFE"/><mask id="b" fill="#fff"><use xlink:href="#a"/></mask><path fill="#FFFFFE" mask="url(#b)" d="M120.187 211.662h8.785v-35.465h-8.785zm-64.25.834c-10.063 0-18.37-8.333-18.37-18.392 0-10.179 8.306-18.258 18.37-18.258 3.863 0 7.495 1.054 10.535 3.164v-2.813h8.663v35.465h-8.663v-2.343c-2.93 1.986-6.552 3.177-10.535 3.177m-9.941-18.392c0 5.514 4.67 10.059 10.18 10.059 5.615 0 10.296-4.545 10.296-10.059 0-5.507-4.68-10.179-10.295-10.179-5.511 0-10.181 4.672-10.181 10.179m128.144-29.951l-42.83-74.32 30.787-17.787 53.254 92.107zm-77.472 48.343c-10.186 0-18.486-8.333-18.486-18.392 0-10.179 8.3-18.258 18.486-18.258 3.857 0 7.38 1.054 10.413 3.164v-14.857h8.776v47.509h-8.776v-2.343c-3.033 1.986-6.556 3.177-10.413 3.177m-10.071-18.392c0 5.514 4.677 10.059 10.305 10.059 5.498 0 10.179-4.545 10.179-10.059 0-5.507-4.681-10.179-10.179-10.179-5.628 0-10.305 4.672-10.305 10.179m9.361-71.971l30.908-17.666 34.521 59.687h-32.415v8.789h-8.785v-8.79zm95.395 90.363c-10.064 0-18.371-8.333-18.371-18.392 0-10.179 8.308-18.258 18.371-18.258 3.861 0 7.48 1.054 10.404 3.164v-2.813h8.788v35.465h-8.787v-2.343c-2.925 1.986-6.425 3.177-10.405 3.177m-9.843-18.392c0 5.514 4.695 10.059 10.202 10.059 5.496 0 10.046-4.545 10.046-10.059 0-5.507-4.55-10.179-10.047-10.179-5.507 0-10.2 4.672-10.2 10.179"/><path d="M161.387 164.153h8.665v47.51h-8.665v-2.344c-2.916 1.985-6.543 3.177-10.533 3.177-10.07 0-18.376-8.333-18.376-18.392 0-10.18 8.307-18.259 18.376-18.259 3.99 0 7.5 1.055 10.533 3.164v-14.856zm-20.364 29.951c0 5.514 4.68 10.06 10.07 10.06 5.613 0 10.294-4.546 10.294-10.06 0-5.508-4.681-10.18-10.293-10.18-5.391 0-10.071 4.672-10.071 10.18z" fill="#FFFFFE" mask="url(#b)"/></g></g></svg>