<?xml version="1.0" encoding="UTF-8"?>
<svg width="381px" height="138px" viewBox="0 0 381 138" version="1.1" xmlns="http://www.w3.org/2000/svg" xmlns:xlink="http://www.w3.org/1999/xlink">
    <defs>
        <linearGradient x1="34.0348532%" y1="16.7550163%" x2="95.0675109%" y2="126.90148%" id="linearGradient-1">
            <stop stop-color="#00275D" offset="0%"></stop>
            <stop stop-color="#FFFFFF" offset="100%"></stop>
        </linearGradient>
    </defs>
    <g id="Page-1" stroke="none" stroke-width="1" fill="none" fill-rule="evenodd">
        <g id="endurance_logo" transform="translate(190.500000, 69.000000) scale(-1, 1) rotate(180.000000) translate(-190.500000, -69.000000) translate(-1.000000, -2.000000)">
            <path d="M98.7942584,59.217477 C117.307591,62.9121435 143.203591,69.71081 162.62759,78.3814765 C185.780923,88.9014762 206.854256,99.369476 207.247589,108.488142 C207.623589,116.486809 198.247589,119.634809 189.518256,118.720142 C181.21559,117.837475 167.306257,113.153476 148.802257,101.997476 C133.994258,92.7121428 109.918258,72.2454766 98.8102584,59.8388103 L98.7942584,59.217477 Z M205.906256,128.305475 C224.380922,128.273475 233.824922,119.190809 232.987588,110.189476 C231.220922,91.0681428 201.488923,82.0414764 173.716923,72.78281 C145.964924,63.4828102 112.654258,56.7148104 93.2302586,53.0148104 C89.5182587,48.0521439 88.6022587,43.7028107 87.6715921,39.3561441 C86.7409254,30.6574777 95.9755919,25.6801445 108.911592,25.0428111 C129.266258,25.0094778 156.088924,31.1801443 193.103589,47.2708106 C214.390256,56.5641437 238.844922,70.5494767 252.343588,78.8614765 C256.131588,81.1948097 262.155588,86.164143 264.367588,82.572143 C266.127588,79.7161431 259.740921,75.7401432 256.952921,73.8921433 C243.999588,65.2094768 221.794255,52.8134771 198.651589,41.6721441 C159.77559,24.3454778 121.846258,15.0788114 90.407592,15.1281447 C56.1835928,15.1788114 38.6289266,25.1494778 39.5875933,40.6654774 C41.4502599,52.4681438 50.019593,64.2228102 64.4782593,75.7321432 C78.9075923,87.2388096 106.415592,102.341476 122.912925,108.872142 C149.514257,119.392142 179.996923,128.348142 204.964922,128.305475 L205.906256,128.305475 Z" id="path126" fill="#373535" fill-rule="nonzero"></path>
            <path d="M122.386658,102.724009 C105.891992,96.190676 78.382659,81.0946764 63.949326,69.5786767 C49.495993,58.078677 40.9239932,46.325344 39.0599933,34.5240109 C38.10266,19.0093446 55.6559929,9.02801155 89.8826587,8.97867822 C121.318658,8.92667822 159.249324,18.202678 198.125323,35.5333442 C221.267989,46.6600106 243.473321,59.0680103 256.426655,67.7413434 C259.211988,69.5973434 265.601321,73.5760099 263.839988,76.4200099 C261.630654,80.0133431 255.602655,75.0520099 251.817321,72.72001 C238.319988,64.4013435 213.863989,50.4160105 192.577323,41.1226774 C155.562657,25.0280111 128.739991,18.8560113 108.383992,18.8920113 C95.4466585,19.530678 86.2133254,24.5173445 87.1439921,33.2146776 C88.0786587,37.5546775 88.9933254,41.9013441 92.7039919,46.8640106 C112.126658,50.5653438 145.438657,57.3400103 173.193323,66.6346768 C200.961323,75.8920099 230.697322,84.9240097 232.459988,104.048009 C233.299988,113.037342 223.854655,122.128009 205.378656,122.157342 L204.437322,122.164009 C204.386656,122.164009 204.337322,122.164009 204.286656,122.164009 C179.35199,122.164009 148.935991,113.220009 122.386658,102.724009 Z M98.2866585,53.6960104 C109.390658,66.0960101 133.467991,86.5626763 148.278657,95.8560094 C166.777323,107.002676 180.689323,111.689342 188.99199,112.569342 C197.722656,113.482676 207.098656,110.336009 206.719989,102.336009 C206.326656,93.2200094 185.254656,82.757343 162.102657,72.23201 C142.677324,63.5613435 116.781325,56.7680104 98.2693251,53.0666771 L98.2866585,53.6960104 Z" id="path146" fill="url(#linearGradient-1)" fill-rule="nonzero"></path>
            <g id="g150" transform="translate(0.666661, 25.333345)">
                <g id="g156" transform="translate(54.812532, 0.618533)" fill="#373535" fill-rule="nonzero">
                    <path d="M45.3333322,0 L3.11466659,0.243999994 L4.24266656,1.87866662 L1.02533331,1.91466662 L4.06533323,6.31999984 C7.49999981,11.3146664 9.3693331,15.8333329 10.8813331,19.9773328 L14.893333,30.6906659 L17.6306662,32.7559992 L23.4226661,48.6479988 L21.9013328,50.2599987 L32.8826658,80.4053313 L22.5253328,80.471998 L23.1213328,82.1159979 L20.4439995,82.1346646 L26.906666,99.8879975 L60.0919985,113.875997 L81.3973313,113.78133 L80.7933313,112.137331 L83.4879979,112.119997 L48.5559988,16.2026663 C47.0693322,12.0866664 45.6439989,7.60399981 45.4426655,2.73599993 L45.3333322,0 Z" id="path158"></path>
                </g>
                <g id="g160" transform="translate(60.625065, 4.238266)" fill="#E43337" fill-rule="nonzero">
                    <path d="M18.6666662,81.3333313 L23.3359994,94.1466643 L54.8426653,107.425331 L71.5559982,107.341331 L38.0013324,15.1986663 C36.2546658,10.3919997 34.9466658,5.89333319 34.7266658,0.895999978 L0.602666652,1.09866664 C4.0279999,6.06666651 5.98399985,10.5573331 7.73733314,15.3866663 L31.7213325,81.2506646 L18.6666662,81.3333313 Z" id="path162"></path>
                </g>
                <g id="g164" transform="translate(60.625065, 4.238266)" stroke="#FFFFFF" stroke-width="0.5">
                    <path d="M18.6666662,81.3333313 L23.3359994,94.1466643 L54.8426653,107.425331 L71.5559982,107.341331 L38.0013324,15.1986663 C36.2546658,10.3919997 34.9466658,5.89333319 34.7266658,0.895999978 L0.602666652,1.09866664 C4.0279999,6.06666651 5.98399985,10.5573331 7.73733314,15.3866663 L31.7213325,81.2506646 L18.6666662,81.3333313 Z" id="path166"></path>
                </g>
                <g id="g168" transform="translate(40.246799, 44.035199)" fill="#373535" fill-rule="nonzero">
                    <path d="M5.3333332,0 C5.58399986,0.645333317 5.91999985,1.83066662 5.50799986,2.41733327 C5.29066653,2.7386666 4.41733322,3.49199991 1.00933331,3.49199991" id="path170"></path>
                </g>
                <g id="g172" transform="translate(46.012399, 26.522133)" fill="#373535" fill-rule="nonzero">
                    <path d="M19.9999995,22.6666661 L19.4546662,20.4666662 L19.5946662,20.4666662 C21.0413328,22.1639994 22.1226661,22.6666661 24.1053327,22.6666661 L38.7453324,22.6346661 C44.2106656,22.6346661 46.1506655,20.8359995 44.6453322,16.8439996 L40.575999,5.91199985 C39.627999,3.34133325 39.4173323,2.05866662 39.4586657,1.05199997 L26.1959993,1.06666664 C26.958666,2.08399995 27.7239993,3.36133325 28.6813326,5.93066652 L33.0613325,17.6813329 C33.4919992,18.8333329 33.1653325,19.2426662 31.5839992,19.2493329 L21.4679995,19.2586662 C19.8986662,19.2773329 19.2626662,18.8573329 18.8333329,17.7133329 L14.4519996,5.94399985 C13.4946663,3.37599992 13.3026663,2.10133328 13.3266663,1.09466664 L0.0639999984,1.10799997 C0.842666646,2.11733328 1.59866663,3.39333325 2.55599994,5.97066652 L6.97199983,17.8159996 C7.93866647,20.3919995 8.13866646,21.6799995 8.1039998,22.7013328 L19.9999995,22.6666661 Z" id="path174"></path>
                </g>
                <g id="g176" transform="translate(1.713600, 25.407599)" fill="#373535" fill-rule="nonzero">
                    <path d="M43.9999989,7.9999998 L40.7253323,7.59733314 C39.3506657,7.42799981 38.0733324,7.33733315 37.0759991,7.33733315 L16.7599996,7.36266648 L17.5066662,9.37599977 L44.0519989,9.34399977 L47.0559988,17.4279996 C47.9119988,19.7039995 47.8293321,21.5679995 46.8559988,22.9759994 C45.6639989,24.7133327 43.3373322,25.5119994 39.5506657,25.5279994 L17.2639996,25.5599994 C11.0159997,25.5599994 7.15599982,23.3133328 5.4333332,18.6786662 L1.69066662,8.66533312 C0.851999979,6.38933317 0.907999977,4.52666655 1.88533329,3.11199992 C3.09199992,1.3853333 5.4093332,0.579999985 9.19466644,0.579999985 L9.20399977,2.28399994 L9.20399977,3.9879999 L9.20399977,3.96933323 L9.20399977,2.28399994 L9.19466644,0.579999985 L39.9786657,0.527999987 L43.9999989,7.9999998 Z" id="path178"></path>
                </g>
                <g id="g180" transform="translate(40.791066, 25.234399)" fill="#373535" fill-rule="nonzero">
                    <path d="M51.9999987,17.3333329 C52.9239987,19.7999995 52.8399987,21.8386661 51.7399987,23.4026661 C50.0026654,25.902666 46.4773322,26.1879993 43.9666656,26.206666 L29.3266659,26.2133327 C28.9079993,26.2199993 28.4959993,26.1959993 28.1173326,26.1453327 L28.142666,26.2199993 L10.9853331,26.2573327 L11.0439997,23.9039994 C11.0693331,23.3173328 10.9853331,22.3439994 10.0773331,19.9013328 L5.65199986,8.0559998 C4.70399988,5.53733319 4.05866657,4.52266655 3.49733325,3.79199991 L0.623999984,0.138666663 L20.8973328,0.0973333309 L20.8133328,2.44799994 C20.7973328,3.02799992 20.8906661,4.00266657 21.7973328,6.44533317 L26.1693327,18.1959995 C26.1879993,18.2226662 26.2039993,18.2479995 26.2119993,18.2546662 C26.3213327,18.2813329 26.454666,18.2906662 26.6893327,18.2813329 L35.6053324,18.2706662 L31.7773325,8.00533313 C30.8359992,5.49599986 30.1813326,4.47866655 29.6106659,3.75866657 L26.766666,0.0973333309 L47.0066655,0.0746666648 L46.9386655,2.41599994 C46.9133322,2.98533326 47.0066655,3.9599999 47.9133321,6.41066651 L51.9999987,17.3333329 Z" id="path182"></path>
                </g>
                <g id="g184" transform="translate(83.609331, 23.772133)" fill="#373535" fill-rule="nonzero">
                    <path d="M150.666663,9.3333331 C150.642663,9.3013331 150.634663,9.27466643 150.634663,9.2653331 C150.559996,9.25599977 150.399996,9.2493331 150.166663,9.24266644 L140.82133,9.25599977 L142.158663,12.809333 C142.174663,12.833333 142.182663,12.8426663 142.182663,12.8679997 C142.282663,12.8746663 142.450663,12.893333 142.66933,12.893333 L151.986663,12.8746663 L150.666663,9.3333331 Z M32.9146658,9.49999976 C32.8893325,9.4853331 32.8719992,9.46799976 32.8719992,9.45066643 C32.7746658,9.43466643 32.6293325,9.4173331 32.3946659,9.42399976 L24.1346661,9.43466643 L27.918666,19.5999995 C27.938666,19.6266662 27.9279993,19.6586662 27.938666,19.6919995 L36.6933324,19.6679995 L32.9146658,9.49999976 Z M214.342661,18.4933329 C215.274661,20.9439995 215.181328,22.9919994 214.091995,24.5706661 C212.361328,27.046666 208.825328,27.3479993 206.309328,27.3479993 L191.677329,27.3733326 C191.265329,27.3733326 190.855995,27.3479993 190.466662,27.2999993 L190.491995,27.3733326 L173.334662,27.3999993 L173.409329,25.046666 C173.426662,24.4853327 173.343996,23.5213327 172.418662,21.0533328 L168.011996,9.19999977 C167.138662,6.92399983 166.534663,5.87599985 165.997329,5.1533332 C166.138663,5.74933319 166.366663,6.52933317 166.794662,7.62933314 L170.863996,18.5586662 C171.763996,21.0186661 171.679996,23.0573328 170.598662,24.6279994 C168.874662,27.114666 165.333329,27.4173326 162.814663,27.4173326 L133.767997,27.4653326 L120.070664,27.4813326 C118.791997,27.4813326 117.61733,27.4173326 116.559997,27.2319993 L116.603997,27.4813326 L100.147997,27.5093326 L100.231997,25.166666 C100.267997,24.5799994 100.157331,23.6119994 99.2426642,21.1613328 L94.825331,9.3173331 C94.3546643,8.0319998 93.3066643,7.53599981 92.349331,7.27599982 C92.3999977,7.42533315 92.4519977,7.57066648 92.5266644,7.73999981 L99.8986642,27.5173326 L81.679998,27.542666 L81.7733313,25.1933327 C81.7893313,24.6119994 81.695998,23.6386661 80.779998,21.1946661 L76.3919981,9.43466643 C76.3826648,9.4173331 76.3759981,9.4013331 76.3759981,9.38266643 C76.2813314,9.3653331 76.1226648,9.35066643 75.8893314,9.35999977 L66.9813317,9.3653331 L73.7559982,27.5519993 L56.4959986,27.5839993 L60.5759985,38.3773324 L59.0466652,38.3773324 L59.0559985,38.4066657 L43.9373322,38.4386657 L42.3666656,38.4973324 L42.3666656,38.4453324 L39.4613323,38.4453324 L41.3946656,43.7199989 L47.1013322,43.7199989 L50.0466654,51.7439987 L44.3493322,51.753332 L45.7999989,55.7493319 L33.8293325,55.8159986 L32.4013325,51.7626654 L29.3799993,51.777332 L14.909333,51.805332 C12.3626664,51.805332 8.94666644,50.7533321 7.08399982,45.6666655 L6.37066651,43.7439989 C6.10133318,42.9959989 5.3733332,41.031999 5.86666652,39.1173324 L5.12933321,39.3946657 L0.68666665,30.3053326 L19.4999995,30.2693326 C22.9333328,30.2626659 25.5599994,31.7653325 27.0039993,34.5333325 C27.106666,33.7293325 27.366666,33.0079992 27.8253326,32.3666659 C28.4813326,31.4053325 29.8319993,30.2519992 32.4533325,30.2466659 L40.619999,30.2373326 C40.479999,29.8506659 40.3346657,29.4639993 40.1946657,29.0613326 L39.5293323,27.2653327 C38.7426657,27.5519993 37.8999991,27.6079993 37.1106657,27.598666 L22.7546661,27.626666 C16.2759996,27.6399993 12.229333,25.266666 10.4079997,20.3799995 L6.67199983,10.3746664 C5.74933319,7.9159998 5.83199985,5.85866652 6.92533316,4.29733323 C8.65466645,1.81199995 12.1959997,1.51866663 14.705333,1.50799996 L29.6066659,1.49466663 C30.2693326,1.49466663 30.9079992,1.55999996 31.5119992,1.72799996 L31.5053325,1.49466663 L48.1079988,1.45999996 L48.0239988,3.80933324 C48.0079988,4.37999989 48.1013321,5.35466653 49.0239988,7.80533314 L55.6479986,25.3253327 L55.6479986,25.234666 C55.6653319,24.6626661 55.5733319,23.6799994 54.6479986,21.2199995 L50.5679987,10.3066664 C49.6719988,7.85733314 49.7559988,5.80533319 50.8373321,4.22799989 C52.557332,1.73599996 56.0999986,1.44266663 58.6106652,1.44266663 L73.2439982,1.42666663 C73.6786648,1.42666663 74.0839981,1.44266663 74.4679981,1.49466663 L74.4426648,1.41599996 L91.6026644,1.39199997 L110.070664,1.35866663 L109.986664,3.71866657 C109.970664,4.28933323 110.063997,5.27199987 110.986664,7.70399981 L115.039997,18.5839995 C115.142664,18.6093329 115.318664,18.6359995 115.518664,18.6359995 L120.051997,18.6199995 C123.679997,18.6199995 124.450664,18.5026662 125.70933,18.3079995 L128.13733,17.9639996 L128.546663,18.6613329 L130.002663,18.8866662 C128.018663,17.5426662 126.358664,15.3613329 125.063997,11.885333 C124.15733,9.43466643 123.31733,6.32133318 124.946664,3.96133323 C126.559997,1.65999996 129.655997,1.34266663 132.467997,1.34266663 L147.234663,1.30666663 C148.274663,1.30666663 149.17333,1.39199997 149.978663,1.58266663 L149.926663,1.30666663 L162.993329,1.29066663 L165.869329,1.29066663 L183.247995,1.2573333 L183.173329,3.60799991 C183.146662,4.1719999 183.247995,5.1533332 184.163995,7.60399981 L188.546662,19.3573328 C188.554662,19.3733328 188.554662,19.3986662 188.554662,19.4159995 C188.661329,19.4239995 188.814662,19.4413328 189.047995,19.4319995 L197.947995,19.4239995 L194.137328,9.1653331 C193.195995,6.64533317 192.530662,5.63333319 191.970662,4.89999988 L189.099995,1.24266664 L209.382661,1.21599997 L209.282661,3.57333324 C209.262661,4.13733323 209.357328,5.10399987 210.286661,7.56133314 L214.342661,18.4933329 Z" id="path186"></path>
                </g>
                <g id="g188" transform="translate(294.802126, 24.443999)" fill="#373535" fill-rule="nonzero">
                    <path d="M38.6666657,9.3333331 C38.6173324,9.20666644 38.5786657,9.08133311 38.551999,8.94799978 L36.3159991,8.68799978 C34.9226658,8.50933312 33.6733325,8.43466646 32.7239992,8.42533312 L17.8666662,8.45333312 L21.6533328,18.6173329 C21.6533328,18.6426662 21.6746661,18.6493329 21.6946661,18.6786662 C21.7773328,18.6853329 21.9373328,18.7013329 22.1639994,18.7013329 L38.2413324,18.6786662 C39.1813324,18.6786662 40.3306657,18.5839995 41.587999,18.4159995 L42.0266656,18.3573329 L38.6666657,9.3333331 Z M84.8306645,23.7706661 C83.1106646,26.2573327 79.5666647,26.5599993 77.0479981,26.5599993 L54.7519986,26.5933327 C50.8319987,26.5933327 47.8279988,25.718666 45.6533322,23.9559994 L46.7026655,26.6013327 L17.5453329,26.6399993 C11.0479997,26.650666 7.02266649,24.2773327 5.1973332,19.4093328 L1.45999996,9.38266643 C0.546666653,6.93199983 0.614666651,4.88399988 1.73199996,3.30533325 C3.45199991,0.822666646 6.98666649,0.527999987 9.49599976,0.518666654 L36.9199991,0.485333321 L38.3146657,4.49733322 C38.467999,4.0519999 38.659999,3.63999991 38.9266657,3.25599992 C40.6586657,0.770666647 44.1933322,0.475999988 46.6933322,0.475999988 L78.7853314,0.426666656 L81.7746646,9.06399977 L78.171998,8.62266645 C76.7786647,8.46133312 75.5453314,8.35999979 74.5879981,8.35999979 L55.0706653,8.39199979 L55.4079986,9.28266643 L81.935998,9.23066644 L85.0906645,17.6946662 C85.9986645,20.1519995 85.9133312,22.2026661 84.8306645,23.7706661 Z" id="path190"></path>
                </g>
                <g id="g192" transform="translate(40.703732, 27.592399)" fill="#E43337" fill-rule="nonzero">
                    <path d="M17.3333329,1.3333333 L0.854666645,1.3493333 L2.17199995,3.02933326 C2.78533326,3.83466657 3.51333325,4.94933321 4.51599989,7.61999981 L8.93999978,19.4653328 C9.91333309,22.1026661 10.0146664,23.2093328 9.98133308,23.9306661 L9.96266642,25.0053327 L24.2599994,24.9879994 L24.1333327,24.4186661 C24.954666,24.822666 25.8613327,24.9879994 27.0293327,24.9879994 L41.6613323,24.9559994 C45.2306655,24.9559994 47.3706655,24.2319994 48.4359988,22.7053328 C49.2919988,21.4786661 49.3253321,19.8173328 48.5613321,17.7519996 L44.4839989,6.84133316 C43.5013322,4.20399989 43.3906656,3.09466659 43.4239989,2.37333327 L43.4493322,1.28399997 L26.970666,1.31599997 L28.2973326,2.98666659 C28.9173326,3.80266657 29.6479993,4.91733321 30.6386659,7.57866648 L35.0199991,19.3306662 C35.0373325,19.3826662 35.0533325,19.4333328 35.0533325,19.4653328 C34.9479991,19.4799995 34.7706658,19.4893328 34.5266658,19.4799995 L24.3933327,19.4999995 C23.1346661,19.5066662 22.9679994,19.2559995 22.7573328,18.6266662 L18.3733329,6.87333316 C17.3853329,4.23733323 17.2813329,3.12799992 17.3079996,2.40799994 L17.3333329,1.3333333 Z" id="path194"></path>
                </g>
                <g id="g196" transform="translate(131.845063, 27.458399)" fill="#E43337" fill-rule="nonzero">
                    <path d="M7.9999998,1.3333333 C4.44266656,1.3333333 2.29066661,2.06399995 1.23199997,3.59866658 C0.385333324,4.82533321 0.350666658,6.48799984 1.11599997,8.54266645 L5.18666654,19.4653328 C6.17866651,22.0999994 6.27733318,23.1999994 6.25333318,23.9399994 L6.22133318,25.0133327 L21.3719995,24.9893327 L14.6546663,6.96533316 C14.6479996,6.92266649 14.6319996,6.87066649 14.605333,6.8386665 C14.7319996,6.8226665 14.8999996,6.80533316 15.1439996,6.80533316 L25.2773327,6.7906665 C26.5439993,6.79733316 26.694666,7.03999982 26.922666,7.67999981 L31.3119992,19.4226662 C32.2946659,22.0586661 32.4053325,23.1586661 32.3786659,23.8893327 L32.3359992,24.970666 L47.5146655,24.9573327 L40.755999,6.8386665 C39.775999,4.20266656 39.6466657,3.10266659 39.6826657,2.37199994 L39.723999,1.2813333 L25.4013327,1.31466663 L25.546666,1.86933329 C24.7293327,1.48266663 23.7999994,1.31466663 22.6386661,1.31466663 L7.9999998,1.3333333 Z" id="path198"></path>
                </g>
                <g id="g200" transform="translate(173.556662, 27.406266)" fill="#E43337" fill-rule="nonzero">
                    <path d="M0,1.3333333 L1.3013333,3.01199992 C1.93333329,3.8199999 2.64533327,4.94399988 3.65466658,7.61199981 L8.05866647,19.4586662 C9.05333311,22.0866661 9.15199977,23.1946661 9.13599977,23.9173327 L9.10133311,24.9893327 L22.8279994,24.974666 L22.7013328,24.2093327 C24.0266661,24.8133327 25.6973327,24.974666 27.754666,24.974666 L40.3386657,24.9573327 L36.2173324,18.0079995 L35.5373324,18.0986662 C33.5639992,18.3746662 32.2639992,18.5626662 27.7039993,18.5693329 L23.2039994,18.5693329 C22.3239994,18.5759995 21.7853328,18.3426662 21.6919995,18.1079995 L17.4959996,6.8586665 C16.5239996,4.22266656 16.4039996,3.13199992 16.4199996,2.39199994 L16.4626663,1.3173333 L0,1.3333333 Z" id="path202"></path>
                </g>
                <g id="g204" transform="translate(1.082000, 28.614532)" fill="#E43337" fill-rule="nonzero">
                    <path d="M17.3333329,14.6666663 L29.7466659,14.6466663 L31.1506659,18.3733329 C31.1573326,18.4253329 31.1759992,18.4586662 31.1933326,18.5106662 C31.0666659,18.5279995 30.8973326,18.5346662 30.6546659,18.5279995 L20.1213328,18.5426662 C18.8519995,18.5519995 18.6933329,18.2906662 18.4573329,17.6719996 L17.3333329,14.6666663 Z M7.45066648,0.378666657 C3.8999999,0.385333324 1.74399996,1.09866664 0.685333316,2.63599993 C-0.163999996,3.86133324 -0.206666662,5.51466653 0.567999986,7.58133314 L4.30533323,17.5866662 C5.94799985,22.0026661 9.50799976,24.0533327 15.4933329,24.0426661 L37.8053324,24.0159994 C41.3493323,24.0013327 43.4986656,23.2879994 44.5826656,21.7506661 C45.4226655,20.5239995 45.4546655,18.8626662 44.6893322,16.7999996 L41.8293323,9.15866644 L15.3079996,9.19466644 L14.117333,6.00133318 C14.0826663,5.95866652 14.0746663,5.91599985 14.065333,5.88399985 C14.185333,5.86133319 14.369333,5.85199985 14.6106663,5.85199985 L35.3146658,5.81866652 C36.3213324,5.81866652 37.5973324,5.91066652 39.0746657,6.08399985 L41.063999,6.31199984 L37.8399991,0.326666658 L7.45066648,0.378666657 Z" id="path206"></path>
                </g>
                <g id="g208" transform="translate(86.296931, 28.191466)" fill="#E43337" fill-rule="nonzero">
                    <path d="M33.3333325,18.6666662 L28.9839993,7.01466649 C28.7493326,6.38133317 28.6159993,6.12266651 27.322666,6.12266651 L16.7866662,6.13866651 C16.5426663,6.13866651 16.3759996,6.15733318 16.2493329,6.17333318 C16.2666663,6.21599984 16.2826663,6.25466651 16.2919996,6.30666651 L20.6479995,17.9599996 C20.8759995,18.5826662 21.0253328,18.8493329 22.3039994,18.8426662 L32.8533325,18.8159995 C33.0826658,18.8253329 33.2493325,18.8159995 33.3853325,18.7973329 C33.3853325,18.7639995 33.3426658,18.7133329 33.3333325,18.6666662 Z M52.4639987,32.0879992 L44.0373322,32.0946659 L44.0799989,32.1973325 L34.1213325,32.1973325 C34.1639991,32.2639992 34.1906658,32.3319992 34.2066658,32.4146659 L37.3879991,41.0946656 L43.0866656,41.0946656 L44.7226655,45.5266655 L39.0266657,45.5453322 L40.495999,49.5479988 L32.3519992,49.5999988 L30.9319992,45.5613322 L26.582666,45.5693322 L12.1706664,45.5786655 C9.3013331,45.5866655 7.23333315,43.9346656 5.99999985,40.615999 L5.31199987,38.7026657 C4.57199989,36.7133324 4.56533322,35.2599991 5.25999987,34.2626658 C5.84799985,33.4159992 6.88933316,32.9839992 8.30799979,32.9773325 L15.5106663,32.9719992 L15.3346663,32.4493325 C15.2079996,32.1279992 14.8226663,32.0879992 14.6719996,32.0946659 L7.50266648,32.1146659 C5.34399987,32.1039992 4.81733321,32.1799992 4.17866656,32.4146659 L3.29599992,32.7413325 L0.81999998,27.6733326 L16.7466662,27.6453326 C19.8599995,27.638666 22.0506661,29.0986659 23.0666661,31.8613325 L24.4519994,35.6386658 C24.9973327,37.0999991 24.962666,38.2933324 24.3426661,39.183999 C23.6799994,40.1213323 22.4959994,40.5746657 20.7159995,40.5826657 L13.949333,40.591999 L14.0426663,40.867999 C14.1426663,41.0693323 14.1666663,41.143999 14.4786663,41.1386656 L21.5706661,41.1213323 C23.7706661,41.1213323 24.2493327,40.943999 24.786666,40.7426656 L25.7773327,40.391999 L26.046666,41.1213323 L29.3186659,41.111999 L26.5173327,33.5066658 C25.7933327,31.5599992 25.802666,30.0213326 26.542666,28.9719993 C27.1533327,28.0839993 28.230666,27.6319993 29.6906659,27.622666 L36.6573324,27.6133326 C36.5399991,27.2853327 36.4133324,26.942666 36.2799991,26.5639993 L35.0986658,23.3826661 C34.9853325,23.4679994 34.8946658,23.5493327 34.7866658,23.6266661 C34.0639991,24.2239994 33.0506658,24.3066661 32.0479992,24.3066661 L17.6919996,24.3239994 C11.6906664,24.3506661 8.1319998,22.2906661 6.4946665,17.8746662 L2.75999993,7.87733314 C1.98799995,5.80399985 2.02933328,4.14133323 2.86133326,2.93333326 C3.92533324,1.38666663 6.09066651,0.675999983 9.65866643,0.665333317 L24.5533327,0.649333317 C25.6759994,0.649333317 26.7853327,0.951999976 27.7439993,1.50399996 L27.7173326,0.633333317 L41.7693323,0.623999984 L41.7346656,1.70666662 C41.7186656,2.43066661 41.8106656,3.53733324 42.8039989,6.17333318 L52.4639987,32.0879992 Z" id="path210"></path>
                </g>
                <g id="g212" transform="translate(205.651062, 27.513066)" fill="#E43337" fill-rule="nonzero">
                    <path d="M14.6666663,6.6666665 C14.7946663,6.65733317 14.9599996,6.6346665 15.2106663,6.64799983 L25.7399994,6.61599983 C27.0053327,6.62533317 27.1479993,6.87733316 27.3919993,7.51466648 L29.3413326,12.7106663 L18.2573329,12.7279997 C16.9746662,12.7279997 16.8333329,12.4759997 16.5986663,11.8546664 L14.709333,6.80133316 C14.6999996,6.7506665 14.6746663,6.70933317 14.6666663,6.6666665 Z M8.0599998,1.17599997 C5.54933319,1.17599997 2.81999993,1.42799996 1.54399996,3.27466658 C0.513333321,4.74533321 0.595999985,6.84533316 1.80533329,10.0759997 C4.33333323,16.8746662 8.22133313,18.2359995 13.6386663,18.2253329 L30.3973326,18.2013329 C31.3906659,18.1933329 31.4719992,18.4359995 31.5133325,18.5293329 L31.8759992,19.4946662 C31.8066659,19.5133328 31.7426659,19.5133328 31.6586659,19.5039995 L13.7519997,19.5359995 C11.7946664,19.5439995 10.6039997,19.4853328 7.97466647,19.0919995 L5.83599985,18.7733329 L9.34399977,24.8333327 L38.3986657,24.798666 C41.947999,24.798666 44.1066656,24.0786661 45.1799989,22.5493328 C46.0226655,21.3253328 46.0626655,19.6533328 45.2919989,17.5879996 L41.227999,6.6666665 C40.2293323,4.03066657 40.1253323,2.93066659 40.1426657,2.19999994 L40.1773323,1.12666664 L26.898666,1.14266664 L27.030666,2.09999995 C25.8573327,1.4133333 24.5639994,1.14266664 22.8413328,1.15199997 L8.0599998,1.17599997 Z" id="path214"></path>
                </g>
                <g id="g216" transform="translate(246.184927, 27.266933)" fill="#E43337" fill-rule="nonzero">
                    <path d="M26.666666,1.3333333 L27.9773326,2.99999993 C28.6053326,3.82266657 29.3266659,4.91466654 30.3093326,7.60133314 L34.7173325,19.3519995 C34.7333325,19.4039995 34.7333325,19.4386662 34.7506658,19.4733328 C34.6413325,19.4879995 34.4479991,19.5133328 34.2226658,19.5066662 L24.0986661,19.5213328 C22.8119994,19.5213328 22.6719994,19.2693329 22.4346661,18.6399995 L18.0466662,6.89466649 C17.0799996,4.24533323 16.9559996,3.15066659 16.9879996,2.41466661 L17.0386662,1.33999997 L0.534666653,1.37199997 L1.84399995,3.05066659 C2.49199994,3.85866657 3.21066659,4.96666654 4.20266656,7.63466648 L8.61733312,19.4799995 C9.59333309,22.1093328 9.69866642,23.2146661 9.66666642,23.9466661 L9.63999976,25.030666 L23.9453327,25.002666 L23.8053327,24.4413327 C24.6426661,24.8439994 25.5679994,24.9933327 26.726666,25.002666 L41.3733323,24.978666 C44.9173322,24.978666 47.0679988,24.2559994 48.1319988,22.7226661 C48.9719988,21.4959995 49.0226654,19.8319995 48.2493321,17.7599996 L44.1786656,6.84533316 C43.1973323,4.21599989 43.0786656,3.11866659 43.1213323,2.38133327 L43.1533323,1.3053333 L26.666666,1.3333333 Z" id="path218"></path>
                </g>
                <g id="g220" transform="translate(292.986926, 28.519466)" fill="#E43337" fill-rule="nonzero">
                    <path d="M34.6666658,0 L8.1039998,0.0373333324 C4.56933322,0.0373333324 2.41999994,0.758666648 1.35599997,2.28533328 C0.507999987,3.51199991 0.466666655,5.18399987 1.2293333,7.23866649 L4.96533321,17.2453329 C6.58399984,21.5933328 10.2373331,23.6946661 16.1533329,23.6946661 L43.5133322,23.6586661 L41.179999,17.7999996 L40.375999,17.9079996 C39.0733324,18.0853329 37.8493324,18.1693329 36.8586657,18.1693329 L20.7893328,18.2026662 C19.5133328,18.2026662 19.3519995,17.9493329 19.1266662,17.3319996 L14.777333,5.65999986 C14.753333,5.61866653 14.745333,5.56933319 14.729333,5.5333332 C14.8639996,5.51866653 15.029333,5.51066653 15.2639996,5.51066653 L31.3413325,5.47466653 C32.3413325,5.48266653 33.6239992,5.57733319 35.0839991,5.74533319 L36.7386657,5.93733318 L34.6666658,0 Z" id="path222"></path>
                </g>
                <g id="g224" transform="translate(331.682258, 28.109333)" fill="#E43337" fill-rule="nonzero">
                    <path d="M17.3333329,14.6666663 L29.7493326,14.6559996 L31.1533326,18.3786662 C31.1533326,18.4266662 31.1706659,18.4706662 31.1773326,18.5093329 C31.0599992,18.5279995 30.8919992,18.5279995 30.6573326,18.5466662 L20.0973328,18.5546662 C18.8386662,18.5613329 18.7026662,18.3039995 18.4506662,17.6719996 L17.3333329,14.6666663 Z M38.6386657,0.345333325 L7.43733315,0.386666657 C3.8959999,0.397333323 1.74533329,1.10799997 0.679999983,2.64533327 C-0.167999996,3.87066657 -0.209333328,5.53199986 0.562666653,7.59199981 L4.29866656,17.5866662 C5.94399985,22.0039994 9.5013331,24.0519994 15.5039996,24.0426661 L37.7853324,24.0106661 C41.3426656,24.0106661 43.5106656,23.2893328 44.5666656,21.7599995 C45.3999989,20.5359995 45.4586655,18.8653329 44.6759989,16.8013329 L41.8226656,9.15066644 L15.2879996,9.19466644 L14.1106663,6.01199985 C14.093333,5.97066652 14.0786663,5.91999985 14.061333,5.88533319 C14.1879996,5.86933319 14.3626663,5.85333319 14.597333,5.85333319 L35.3319991,5.82666652 C36.3239991,5.82666652 37.6093324,5.91999985 39.0706657,6.08933318 L40.7226656,6.27199984 L38.6386657,0.345333325 Z" id="path226"></path>
                </g>
                <g id="g228" transform="translate(0.903600, 28.871066)" fill="#FFFFFF">
                    <path d="M30.6666659,13.333333 L32.3093325,17.7479996 C32.7226658,18.9093329 32.4106659,19.3106662 30.8333326,19.3199995 L20.3066662,19.3439995 C18.7199995,19.3306662 18.0799995,18.9226662 17.6706662,17.7853329 L16.0253329,13.3679997 L30.6666659,13.333333 Z M14.749333,9.97599975 L13.3026663,6.11466651 C12.8866663,4.96266654 13.213333,4.55333322 14.773333,4.55333322 L35.5093324,4.52799989 C36.5319991,4.52133322 37.8599991,4.61199988 39.3786657,4.78933321 L37.3893324,1.12933331 L7.63866648,1.17066664 C2.15599995,1.17066664 0.231999994,2.95866659 1.71866662,6.95466649 L5.45599986,16.9613329 C6.93333316,20.9573328 10.2159997,22.7519994 15.6879996,22.7386661 L37.9679991,22.7026661 C43.4426656,22.7026661 45.3706655,20.8893328 43.8946656,16.9106662 L41.283999,9.93466642 L14.749333,9.97599975 Z" id="path230"></path>
                </g>
                <g id="g232" transform="translate(43.636666, 28.872399)" fill="#FFFFFF">
                    <path d="M19.9999995,22.6666661 L19.4386662,20.4693328 L19.5879995,20.4693328 C21.0413328,22.1653328 22.1159994,22.6666661 24.1213327,22.6666661 L38.727999,22.6426661 C44.2133322,22.6346661 46.1573322,20.8386661 44.6386656,16.8426662 L40.5746657,5.91999985 C39.6106657,3.34133325 39.4186657,2.05866662 39.451999,1.05199997 L26.186666,1.06133331 C26.9679993,2.08399995 27.714666,3.36933325 28.6719993,5.93066652 L33.0546658,17.6813329 C33.4826658,18.8319995 33.1546658,19.2493329 31.5839992,19.2426662 L21.4706661,19.2586662 C19.8986662,19.2773329 19.2626662,18.8559995 18.8413329,17.7159996 L14.461333,5.97199985 C13.4946663,3.39333325 13.2866663,2.09999995 13.3266663,1.08399997 L0.0613333318,1.10799997 C0.845333312,2.11999995 1.59866663,3.41199991 2.5466666,5.98666652 L6.97999983,17.8266662 C7.9279998,20.3839995 8.12933313,21.6799995 8.09733313,22.6866661 L19.9999995,22.6666661 Z" id="path234"></path>
                </g>
                <g id="g236" transform="translate(133.249330, 28.481732)" fill="#FFFFFF">
                    <path d="M25.3333327,1.3333333 L25.878666,3.53199991 L25.742666,3.53199991 C24.2986661,1.83599995 23.2106661,1.3333333 21.2346661,1.3333333 L6.59599984,1.35866663 C1.12933331,1.36799997 -0.80799998,3.16266659 0.687999983,7.15866649 L4.75733321,18.0719995 C5.72266652,20.6479995 5.93333319,21.9333328 5.88933319,22.9399994 L18.4813329,22.9306661 L12.2786664,6.31066651 C11.841333,5.15999987 12.169333,4.74133321 13.749333,4.74133321 L23.8733327,4.73466655 C25.4413327,4.72533322 26.070666,5.1453332 26.4999993,6.28666651 L30.8813326,18.0386662 C31.8479992,20.6093328 32.0559992,21.9013328 32.0146659,22.9079994 L44.5999989,22.8893328 L38.371999,6.18533318 C37.4053324,3.60133324 37.2039991,2.31599994 37.2386657,1.30666663 L25.3333327,1.3333333 Z" id="path238"></path>
                </g>
                <g id="g240" transform="translate(174.578129, 29.203066)" fill="#FFFFFF">
                    <path d="M34.6666658,17.3333329 C32.6346659,17.6199996 31.2666659,17.8053329 26.690666,17.8226662 L22.1759994,17.8133329 C20.8826661,17.8226662 19.9693328,17.4159996 19.6933328,16.6786662 L15.5026663,5.43066653 C14.5546663,2.86133326 14.3359996,1.57866663 14.3666663,0.562666653 L1.11066664,0.578666652 C1.89999995,1.60133329 2.6386666,2.87999993 3.61599991,5.44799986 L8.02133313,17.2919996 C8.97866644,19.8599995 9.17999977,21.1439995 9.16399977,22.1533328 L20.5733328,22.1359994 L20.1773328,19.8039995 L20.3253328,19.8039995 C21.3093328,21.5399995 23.0466661,22.1359994 26.7333327,22.1359994 L37.4959991,22.1213328 L34.6666658,17.3333329 Z" id="path242"></path>
                </g>
                <g id="g244" transform="translate(206.567728, 29.291732)" fill="#FFFFFF">
                    <path d="M17.3333329,11.9999997 C15.7733329,11.9999997 15.1346663,11.5866664 14.697333,10.4279997 L12.8159997,5.38399987 C12.3999997,4.24266656 12.6999997,3.82133324 14.2866663,3.81333324 L24.814666,3.80533324 C26.390666,3.80533324 27.038666,4.21599989 27.458666,5.35999987 L29.9173326,11.9719997 L17.3333329,11.9999997 Z M39.311999,5.2573332 C38.3546657,2.68933327 38.1533324,1.39599997 38.1946657,0.389333324 L27.1719993,0.40399999 L27.4679993,2.6546666 L27.322666,2.6546666 C25.6533327,0.909333311 24.3173327,0.40399999 21.9173328,0.40399999 L7.14266649,0.430666656 C1.55199996,0.441333322 -0.354666658,1.99999995 1.87066662,7.92666647 C4.06266657,13.8546663 7.11733316,15.4159996 12.7226663,15.3986663 L29.4799993,15.3813329 C30.5813326,15.3719996 31.2946659,15.6506663 31.5813325,16.3906663 L32.0839992,17.7573329 C32.3599992,18.4879995 31.8399992,18.7733329 30.7333326,18.7639995 L12.825333,18.7999995 C10.8359997,18.7999995 9.60266643,18.7573329 6.90933316,18.3533329 L9.03066644,22.0239994 L37.4813324,21.9799995 C42.9479989,21.9626661 44.8853322,20.1733328 43.3986656,16.1813329 L39.311999,5.2573332 Z" id="path246"></path>
                </g>
                <g id="g248" transform="translate(248.804660, 28.570266)" fill="#FFFFFF">
                    <path d="M19.9999995,22.6666661 L19.4559995,20.4599995 L19.5879995,20.4506662 C21.0413328,22.1559994 22.1173328,22.6506661 24.1133327,22.6506661 L38.7386657,22.6346661 C44.2106656,22.6186661 46.1359988,20.8199995 44.6546656,16.8439996 L40.583999,5.91199985 C39.6106657,3.33466658 39.4106657,2.05866662 39.4426657,1.04266664 L26.1799993,1.05999997 C26.974666,2.07599995 27.714666,3.36133325 28.6733326,5.92799985 L33.0639992,17.6813329 C33.4893325,18.8306662 33.1653325,19.2426662 31.5933325,19.2426662 L21.4786661,19.2613329 C19.8906662,19.2613329 19.2599995,18.8573329 18.8253329,17.6973329 L14.4506663,5.95466652 C13.4946663,3.38666658 13.2919997,2.10133328 13.3266663,1.07866664 L0.0546666653,1.11066664 C0.833333313,2.11733328 1.59866663,3.40266658 2.56399994,5.96133318 L6.96533316,17.8066662 C7.9359998,20.3839995 8.13866646,21.6679995 8.09733313,22.6759994 L19.9999995,22.6666661 Z" id="path250"></path>
                </g>
                <g id="g252" transform="translate(293.775993, 29.096399)" fill="#FFFFFF">
                    <path d="M19.9999995,18.6666662 C18.4213329,18.6666662 17.7759996,18.2613329 17.3639996,17.1053329 L12.9986663,5.44399986 C12.585333,4.29599989 12.9146663,3.88933324 14.4746663,3.88266657 L30.5613326,3.8479999 C31.5706659,3.85733324 32.9119992,3.95066657 34.4146658,4.12666656 L33.1386658,0.458666655 L7.34133315,0.510666654 C1.86799995,0.499999988 -0.0826666646,2.28933328 1.41466663,6.29199984 L5.1573332,16.3013329 C6.64533317,20.2946662 9.90933309,22.0826661 15.3746663,22.0759994 L41.1973323,22.0239994 L39.7186657,18.3559995 C38.3613324,18.5479995 37.1013324,18.6506662 36.0599991,18.6506662 L19.9999995,18.6666662 Z" id="path254"></path>
                </g>
                <g id="g256" transform="translate(331.481725, 28.384132)" fill="#FFFFFF">
                    <path d="M30.6666659,13.333333 L32.3279992,17.7506662 C32.7479992,18.8906662 32.4186659,19.2959995 30.8413326,19.3106662 L20.3146662,19.3279995 C18.7453329,19.3199995 18.1053329,18.9093329 17.6893329,17.7666662 L16.0333329,13.3599997 L30.6666659,13.333333 Z M14.765333,9.95866642 L13.3306663,6.11466651 C12.9026663,4.95866654 13.2226663,4.53599989 14.7986663,4.53599989 L35.5159991,4.51333322 C36.5506658,4.52133322 37.8773324,4.59466655 39.3786657,4.77066655 L38.1213324,1.11199997 L7.64399981,1.14399997 C2.18399995,1.1613333 0.241333327,2.95866659 1.73733329,6.93866649 L5.4653332,16.9613329 C6.94933316,20.9413328 10.2333331,22.7359994 15.6959996,22.7199994 L37.9919991,22.6879994 C43.4586656,22.6879994 45.3973322,20.8893328 43.9133322,16.8933329 L41.3026656,9.91599975 L14.765333,9.95866642 Z" id="path258"></path>
                </g>
                <g id="g260" transform="translate(88.356798, 56.347598)" fill="#FFFFFF">
                    <path d="M19.9999995,3.9999999 C19.1373329,1.63999996 17.3639996,0.455999989 14.661333,0.465333322 L0.398666657,0.481333321 L1.73999996,3.21866659 C2.5546666,2.90666659 3.28399992,2.84933326 5.44266653,2.84933326 L12.5866664,2.82533326 C13.3759997,2.83199993 13.989333,3.23466659 14.2226663,3.8639999 L14.525333,4.74666655 C14.785333,5.3933332 14.4506663,5.79599986 13.6679997,5.80266652 L6.23199984,5.80266652 C3.79733324,5.80266652 3.12533326,7.19599982 4.1999999,10.1293331 L4.91199988,12.0506664 C5.98799985,14.9879996 7.65733314,16.3319996 10.0933331,16.3119996 L24.0799994,16.3053329 L23.0613328,13.5106663 C22.3919994,13.761333 21.8053328,13.9479997 19.5039995,13.9479997 L12.3919997,13.9626663 C11.6906664,13.9479997 11.2266664,13.6439997 10.9933331,13.0239997 L10.7146664,12.2666664 C10.4799997,11.6319997 10.7239997,11.3266664 11.4186664,11.3266664 L18.6466662,11.3186664 C21.3413328,11.3119997 22.2493328,10.1373331 21.3839995,7.76799981 L19.9999995,3.9999999 Z" id="path262"></path>
                </g>
                <g id="g264" transform="translate(88.610664, 29.161466)" fill="#FFFFFF">
                    <path d="M31.9999992,17.3333329 L27.6373326,5.68399986 C27.222666,4.53066655 26.578666,4.11066656 25.0173327,4.11066656 L14.489333,4.12933323 C12.913333,4.12933323 12.585333,4.54799989 13.0119997,5.69066652 L17.3626662,17.3506662 C17.7799996,18.5013329 18.4186662,18.9146662 19.9973328,18.9146662 L30.5239992,18.8946662 C32.1013325,18.8879995 32.4213325,18.4826662 31.9999992,17.3333329 Z M48.6639988,30.0773326 L40.1106657,30.0853326 L40.1373323,30.1186659 L31.9599992,30.1186659 C30.9253326,30.1186659 30.6079992,30.4199992 31.1013326,31.7386659 L34.5439991,41.1066656 L40.2466657,41.0986656 L41.1106656,43.4666656 L35.4106658,43.4666656 L36.8786657,47.4773321 L30.9613326,47.5133321 L29.5519993,43.4839989 L26.4693327,43.4746656 L25.5959994,41.115999 L28.6879993,41.115999 L25.378666,32.1173325 C24.2359994,29.0279993 25.218666,27.6333326 27.5599993,27.6333326 L35.7133324,27.618666 C35.5506658,26.9639993 35.2813325,26.1919993 34.9333325,25.2333327 L33.0093325,20.0946662 L32.7399992,20.0799995 C32.5226659,20.9599995 32.3186659,21.5066661 31.8253325,21.8426661 C31.4133325,22.2093328 30.7013326,22.2933328 29.7439993,22.2933328 L15.3706663,22.3119994 C9.89866642,22.3306661 6.63333317,20.5426662 5.15599987,16.5439996 L1.41066663,6.53999984 C-0.0759999981,2.54133327 1.87199995,0.745333315 7.31866648,0.737333315 L22.2386661,0.721333315 C24.0093327,0.721333315 25.5119994,1.59333329 26.4199993,2.7346666 L26.546666,2.7346666 L26.494666,0.721333315 L38.3906657,0.694666649 C38.3573324,1.71066662 38.547999,2.98666659 39.5146657,5.56399986 L48.6639988,30.0773326 Z" id="path266"></path>
                </g>
            </g>
            <g id="sign_text" transform="translate(155.666661, 0.333345)" fill="#00275D" fill-rule="nonzero">
                <g id="g268" transform="translate(0.396529, 6.102800)">
                    <polygon id="path270" points="2.6666666 0 1.27466663 0.0146666663 1.2813333 11.2146664 2.6786666 11.2146664"></polygon>
                </g>
                <path d="M6.5065293,12.1302664 L6.53452929,12.1302664 C6.95586262,12.8755997 7.77719593,13.2715997 8.62919591,13.2715997 C10.5931959,13.2595997 11.0985292,11.944933 11.0985292,10.2435997 L11.0785292,6.10226651 L9.75586255,6.10226651 L9.75586255,10.0889331 C9.75586255,11.2729331 9.59186255,12.080933 8.22786259,12.088933 C6.49719596,12.088933 6.5065293,10.5662664 6.49719596,9.30226643 L6.49186263,6.10226651 L5.15586266,6.11693318 L5.161196,13.0595997 L6.5065293,13.0595997 L6.5065293,12.1302664 Z" id="path274"></path>
                <g id="g276" transform="translate(11.753862, 5.449200)">
                    <path d="M2.6666666,6.6666665 L2.70133327,6.6666665 C3.12266659,7.41199981 3.9439999,7.80933314 4.80133321,7.80933314 C6.74933316,7.80533314 7.25733315,6.48133317 7.25733315,4.77999988 L7.24266649,0.645333317 L5.90933319,0.638666651 L5.92266652,4.62666655 C5.93199985,5.80933319 5.75866652,6.62533317 4.39599989,6.62533317 C2.6666666,6.62533317 2.65999993,5.11066654 2.6666666,3.84666657 L2.65999993,0.638666651 L1.3253333,0.653333317 L1.33066663,7.61066648 L2.68133327,7.59333314 L2.6666666,6.6666665 Z" id="path278"></path>
                </g>
                <g id="g280" transform="translate(19.052796, 5.545600)">
                    <path d="M2.6666666,3.9999999 C2.66133327,2.6946666 3.71066657,1.58133329 5.03866654,1.57066663 C6.35999984,1.57066663 7.41866648,2.68533327 7.40799981,3.99066657 C7.42266648,5.3133332 6.36666651,6.41999984 5.05199987,6.42799984 C3.71733324,6.41999984 2.6666666,5.32799987 2.6666666,3.9999999 M8.75999978,3.99066657 C8.75466645,1.90133329 7.11599982,0.299999993 5.03866654,0.299999993 C2.95466659,0.299999993 1.31599997,1.91333329 1.3253333,4.0079999 C1.33066663,6.09333318 2.96799993,7.69866647 5.04399987,7.69866647 C7.12933316,7.69866647 8.75466645,6.09333318 8.75999978,3.99066657" id="path282"></path>
                </g>
                <g id="g284" transform="translate(27.548129, 4.679733)">
                    <polygon id="path286" points="3.9999999 3.9999999 6.02266652 8.33599979 7.51333315 8.33599979 3.99333323 1.1493333 0.522666654 8.34533312 2.02799995 8.34533312"></polygon>
                </g>
                <g id="g288" transform="translate(34.523462, 5.532533)">
                    <path d="M6.6666665,3.9999999 C6.6666665,5.34799987 5.85199985,6.49999984 4.41866656,6.49999984 C3.03066659,6.49999984 2.21599994,5.3053332 2.21599994,4.0039999 C2.20933328,2.69733327 2.99333326,1.4853333 4.40933322,1.4853333 C5.86133319,1.47599996 6.6826665,2.62799993 6.6666665,3.9999999 Z M7.9399998,0.526666653 L6.58799984,0.518666654 L6.59599984,1.61199996 L6.56799984,1.61199996 C6.01866652,0.81999998 5.2053332,0.285333326 4.19066656,0.297333326 C2.06933328,0.291999993 0.866666645,2.06133328 0.882666645,4.0559999 C0.889333311,5.95599985 2.13866661,7.69066647 4.16933323,7.69733314 C5.19066654,7.68399981 6.02266652,7.15466649 6.56799984,6.32533318 L6.60933317,6.32533318 L6.6026665,7.46933315 L7.94666647,7.48266648 L7.9399998,0.526666653 Z" id="path290"></path>
                </g>
                <g id="g292" transform="translate(43.201862, 6.044267)">
                    <polygon id="path294" points="2.6666666 0 1.33199997 0.0146666663 1.33199997 5.71599986 0.609333318 5.71599986 0.615999985 6.95733316 1.3453333 6.95733316 1.35199997 9.63066643 2.68933327 9.62266643 2.68133327 6.95733316 3.98933323 6.95733316 3.98933323 5.71599986 2.68133327 5.71599986"></polygon>
                </g>
                <g id="g296" transform="translate(47.039062, 4.996133)">
                    <path d="M2.6666666,7.9999998 L1.3053333,8.00533313 L1.3053333,1.04799997 L2.6586666,1.04799997 L2.6666666,7.9999998 Z M2.00133328,12.1199997 C1.47866663,12.1199997 1.08533331,11.705333 1.07333331,11.1839997 C1.07333331,10.6786664 1.50266663,10.2773331 1.99466662,10.2773331 C2.5026666,10.2773331 2.92133326,10.6786664 2.91733326,11.1773331 C2.92133326,11.705333 2.5026666,12.1199997 2.00133328,12.1199997 Z" id="path298"></path>
                </g>
                <g id="g300" transform="translate(50.354128, 4.647200)">
                    <polygon id="path302" points="3.9999999 3.9999999 6.02799985 8.33999979 7.52399981 8.33466646 3.9999999 1.14799997 0.52133332 8.35466646 2.01599995 8.33999979"></polygon>
                </g>
                <g id="g304" transform="translate(58.177061, 4.962267)">
                    <path d="M5.3333332,5.3333332 C5.17066654,6.36266651 4.48399989,7.07066649 3.41866658,7.07066649 C2.38533327,7.07066649 1.60533329,6.32533318 1.4413333,5.3333332 L5.3333332,5.3333332 Z M1.3613333,4.31866656 C1.3773333,3.13333325 2.18533328,2.01866662 3.45733325,2.01199995 C4.49333322,2.01199995 5.04133321,2.52399994 5.54933319,3.36666658 L6.67733317,2.71999993 C6.02133318,1.52666663 4.79999988,0.826666646 3.43999991,0.826666646 C1.31999997,0.833333312 0.0213333328,2.43199994 0.0333333325,4.48266655 C0.0333333325,6.62533317 1.1773333,8.23333313 3.42666658,8.23333313 C5.64266653,8.22666646 6.6706665,6.58399984 6.68533317,4.52533322 L6.67733317,4.31199989 L1.3613333,4.31866656 Z" id="path306"></path>
                </g>
                <g id="g308" transform="translate(70.575461, 5.584667)">
                    <path d="M3.9999999,6.6666665 L4.27866656,6.6626665 C4.95066654,6.6626665 5.62266653,6.75999983 5.61333319,7.60399981 C5.62266653,8.44666646 5.01466654,8.56799979 4.32266656,8.56133312 L4.01066657,8.56133312 L3.9999999,6.6666665 Z M0.0213333328,11.625333 L4.94133321,11.6159997 C7.46533315,11.6159997 9.60666643,10.5479997 9.60666643,7.71599981 C9.60666643,6.03066652 8.94799978,5.31866653 7.44133315,4.81733321 L7.42666648,4.72399988 C7.63599981,4.56133322 7.89333314,4.38266656 8.1199998,4.0519999 L10.5493331,0.417333323 L5.84266652,0.417333323 L4.0639999,4.01866657 L3.9959999,4.01066657 L3.9959999,0.417333323 L0.0079999998,0.430666656 L0.0213333328,11.625333 Z" id="path310"></path>
                </g>
                <g id="g312" transform="translate(81.005194, 4.815067)">
                    <path d="M5.3333332,3.9999999 C6.05466652,3.9959999 6.35733317,4.57199989 6.36933317,5.18799987 C6.34933317,5.78933319 5.94799985,6.24399984 5.3333332,6.23866651 C4.72933322,6.24399984 4.33333323,5.74533319 4.34399989,5.1573332 C4.32666656,4.52933322 4.62266655,3.9999999 5.3333332,3.9999999 Z M6.35733317,2.21733328 L6.25466651,2.21733328 C5.56266653,1.47199996 4.94266654,0.987999975 3.85733324,0.994666642 C1.71333329,1.00266664 0.52133332,3.17199992 0.53333332,5.08666654 C0.53333332,7.08133316 1.73999996,9.24399977 3.9799999,9.24399977 C4.92799988,9.24399977 5.70533319,8.90266644 6.27599984,8.13066646 L6.35733317,8.13066646 L6.23733318,9.05866644 L10.0053331,9.05199977 L9.99199975,1.1653333 L6.22666651,1.1733333 L6.35733317,2.21733328 Z" id="path314"></path>
                </g>
                <g id="g316" transform="translate(92.166660, 5.104133)">
                    <path d="M6.6666665,5.3333332 C6.26533318,5.68266652 5.80666652,5.99866652 5.2493332,5.99866652 C4.56799989,5.99866652 4.0599999,5.54133319 4.0599999,4.82133321 C4.04933323,4.19733323 4.55733322,3.69733324 5.16666654,3.69733324 C5.77866652,3.68399991 6.22399984,3.9919999 6.6666665,4.29733323 L6.49999984,1.05733331 C5.90399985,0.861333312 5.2373332,0.685333316 4.56799989,0.685333316 C2.00133328,0.685333316 0.178666662,2.13999995 0.187999995,4.78399988 C0.193333328,7.11333316 1.90133329,8.94133311 4.25733323,8.94133311 C5.06266654,8.94133311 5.90399985,8.79866645 6.6746665,8.53333312 L6.6666665,5.3333332 Z" id="path318"></path>
                </g>
                <g id="g320" transform="translate(99.369727, 5.860667)">
                    <path d="M1.3333333,7.9999998 L5.1533332,7.98266647 L5.1533332,0.0986666642 L1.31999997,0.103999997 L1.3333333,7.9999998 Z M5.37199987,10.4266664 C5.37199987,9.13466644 4.35733322,8.56799979 3.24266659,8.56799979 C2.14799995,8.57866645 1.1413333,9.14399977 1.13333331,10.4333331 C1.13333331,11.5786664 2.04666662,12.2759997 3.24933325,12.2706664 C4.45599989,12.2706664 5.35599987,11.5786664 5.37199987,10.4266664 Z" id="path322"></path>
                </g>
                <g id="g324" transform="translate(106.002660, 5.921867)">
                    <path d="M3.9999999,6.6666665 L4.10133323,6.6666665 C4.84399988,7.50933315 5.41466653,8.10133313 6.6426665,8.09466646 C8.60666645,8.09466646 9.37199977,6.6226665 9.37199977,4.88133321 L9.37199977,0.0239999994 L5.52799986,0.0239999994 L5.53599986,3.88133324 C5.52799986,4.34533322 5.53599986,4.99599988 4.87866654,4.99599988 C4.24533323,4.98666654 4.24533323,4.33599989 4.25066656,3.88133324 L4.24533323,0.0279999993 L0.40399999,0.0373333324 L0.41599999,7.92133314 L4.15066656,7.92133314 L3.9999999,6.6666665 Z" id="path326"></path>
                </g>
                <g id="g328" transform="translate(116.285193, 0.759067)">
                    <path d="M5.3333332,7.9999998 C6.00266652,8.0079998 6.30533318,8.50133312 6.30533318,9.09999977 C6.31066651,9.69333309 5.95333318,10.2426664 5.31199987,10.2426664 C4.69066655,10.2426664 4.25333323,9.73733309 4.26133323,9.11466644 C4.24799989,8.48666645 4.67599988,8.0079998 5.3333332,7.9999998 Z M9.89066642,5.62933319 C9.87599975,2.55599994 7.35599982,1.30799997 4.60533322,1.31466663 C3.39066658,1.31466663 2.33999994,1.5293333 1.2173333,1.94266662 L0.834666646,2.07333328 L1.68399996,4.73733321 C2.40533327,4.11466656 3.50266658,3.76266657 4.44666656,3.77333324 C5.47999986,3.75866657 6.11066651,4.51599989 6.20399984,5.4933332 L6.27599984,6.31466651 L6.16933318,6.30799984 C5.79066652,5.43466653 4.76133321,4.99999988 3.85466657,4.99999988 C1.68399996,4.99999988 0.470666655,7.17199982 0.462666655,9.13599977 C0.474666655,11.0986664 1.68933329,13.257333 3.8839999,13.2439997 C4.88799988,13.2439997 5.66533319,12.7706663 6.18399985,11.9279997 L6.28133318,11.9346664 L6.17333318,13.0639997 L9.89066642,13.0559997 L9.89066642,5.62933319 Z" id="path330"></path>
                </g>
                <g id="g332" transform="translate(133.020793, 5.115867)">
                    <path d="M1.3333333,11.9999997 L5.23866654,11.9999997 L8.86799978,5.78799986 L8.99733311,5.78799986 C8.83333311,6.7146665 8.65999978,7.68666647 8.66799978,8.64266645 L8.65999978,11.9999997 L12.553333,11.993333 L12.5386664,0.78799998 L8.63733312,0.794666647 L5.08399987,6.6866665 L4.95333321,6.67999983 C5.09066654,5.91466652 5.20266654,5.17199987 5.2093332,4.43733322 L5.20266654,0.802666647 L1.30799997,0.802666647 L1.3333333,11.9999997 Z" id="path334"></path>
                </g>
                <g id="g336" transform="translate(147.117192, 4.446667)">
                    <path d="M3.9999999,9.3333331 L3.9999999,5.27066653 C3.98533323,4.79999988 4.01466657,4.31999989 4.64266655,4.31199989 C5.2773332,4.31199989 5.3053332,4.79999988 5.3013332,5.25599987 L5.3013332,9.32666643 L9.10666644,9.32666643 L9.09333311,4.86933321 C9.09333311,2.36933327 6.93199983,1.25466664 4.64266655,1.2693333 C2.35999994,1.26266664 0.191999995,2.38399994 0.191999995,4.88399988 L0.186666662,9.3413331 L3.9999999,9.3333331 Z" id="path338"></path>
                </g>
                <g id="g340" transform="translate(156.861992, 5.665333)">
                    <polygon id="path342" points="5.3333332 7.9999998 6.6186665 8.05866647 6.6026665 5.03599987 5.3333332 5.10666654 5.31999987 0.214666661 1.45466663 0.223999994 1.46266663 5.11733321 0.526666654 5.03599987 0.531999987 8.0519998 1.47199996 7.9999998 1.47199996 10.6426664 5.3413332 10.6359997"></polygon>
                </g>
                <g id="g344" transform="translate(164.236925, 4.696667)">
                    <path d="M6.6666665,5.3333332 C6.25599984,5.57733319 5.97999985,5.76133319 5.4893332,5.77199986 C4.49199989,5.76133319 3.99333323,5.1773332 3.99333323,4.20533323 L3.9719999,1.1693333 L0.151999996,1.1773333 L0.158666663,9.06266644 L3.99333323,9.06266644 L3.90933324,8.00533313 L3.9999999,7.99066647 C4.67999988,9.04133311 5.37866653,9.26399977 6.67333317,9.2333331 L6.6666665,5.3333332 Z" id="path346"></path>
                </g>
                <g id="g348" transform="translate(170.820259, 4.526000)">
                    <path d="M1.3333333,1.3333333 L5.15999987,1.32666663 L5.1813332,9.21866644 L1.35199997,9.21866644 L1.3333333,1.3333333 Z M3.27333325,13.5026663 C2.06799995,13.5026663 1.15466664,12.805333 1.16266664,11.6626664 C1.16266664,10.3706664 2.16933328,9.79733309 3.25866659,9.80533309 C4.37599989,9.79066642 5.37466653,10.3613331 5.38266653,11.6466664 C5.37466653,12.7959997 4.47333322,13.4879997 3.27333325,13.5026663 Z" id="path350"></path>
                </g>
                <g id="g352" transform="translate(176.563858, 5.438800)">
                    <path d="M6.6666665,5.3333332 C6.67599983,5.87599985 6.28266651,6.36266651 5.73999986,6.36266651 C5.1533332,6.36266651 4.87199988,5.88666652 4.86533321,5.32666653 L6.6666665,5.3333332 Z M4.86533321,3.70666657 C4.86533321,3.06399992 4.97333321,2.35733327 5.77466652,2.34933327 C6.16799985,2.34933327 6.48133317,2.63599993 6.54399984,3.00666659 L10.2826664,2.99333326 C9.76666642,1.09866664 7.64399981,0.229333328 5.82266652,0.229333328 C3.35199992,0.229333328 1.07466664,1.50666663 1.07466664,4.23333323 C1.08799997,6.84799983 3.11066659,8.47733312 5.61466653,8.47733312 C8.43733312,8.46399979 10.6386664,6.64933317 10.4439997,3.70666657 L4.86533321,3.70666657 Z" id="path354"></path>
                </g>
                <g id="g356" transform="translate(187.996125, 5.792933)">
                    <path d="M3.9999999,6.6666665 L4.09066656,6.65999983 C4.84799988,7.52266648 5.40666653,8.10133313 6.63999983,8.09733313 C8.58933312,8.09733313 9.3693331,6.6226665 9.3693331,4.88133321 L9.36266643,0.0359999991 L5.52666653,0.0359999991 L5.53199986,3.87866657 C5.53999986,4.33866656 5.53999986,4.99333321 4.87733321,4.99333321 C4.24399989,5.00266654 4.23466656,4.33866656 4.24399989,3.88933324 L4.21999989,0.0359999991 L0.406666657,0.0453333322 L0.41199999,7.9239998 L4.15466656,7.93066647 L3.9999999,6.6666665 Z" id="path358"></path>
                </g>
                <g id="g360" transform="translate(198.039058, 5.602800)">
                    <polygon id="path362" points="5.3333332 7.9999998 6.62133317 8.0559998 6.6106665 5.02799987 5.3213332 5.11333321 5.3213332 0.206666661 1.46399996 0.214666661 1.47199996 5.11333321 0.52533332 5.04266654 0.531999987 8.0559998 1.46399996 8.00666647 1.47199996 10.6413331 5.3333332 10.6413331"></polygon>
                </g>
                <g id="g364" transform="translate(204.625058, 4.888000)">
                    <path d="M1.3333333,3.9999999 L1.56133329,3.8439999 C2.09199995,3.51599991 2.86133326,3.11333326 3.51999991,3.12266659 C3.77733324,3.10799992 4.09066656,3.25733325 4.08266656,3.55733324 C4.09066656,3.98533323 3.61866658,3.98533323 3.31066658,4.04266657 C2.03999995,4.21333323 0.849333312,4.74266655 0.849333312,6.22933318 C0.854666645,8.19866646 2.84799993,8.98533311 4.53999989,8.98533311 C5.52666653,8.98533311 6.7346665,8.78799978 7.61199981,8.30666646 L6.66133317,6.12799985 C6.16799985,6.48399984 5.5213332,6.7786665 4.89599988,6.78399983 C4.65466655,6.78399983 4.34933322,6.70799983 4.34933322,6.42666651 C4.34933322,6.04399985 4.75999988,6.01599985 5.29199987,5.92799985 C6.65333317,5.69333319 7.76799981,5.2293332 7.76799981,3.62799991 C7.76799981,1.58666663 5.72533319,0.727999982 3.94666657,0.727999982 C2.70533327,0.734666648 1.49066663,1.13599997 0.347999991,1.62933329 L1.3333333,3.9999999 Z" id="path366"></path>
                </g>
                <g id="g368" transform="translate(212.292924, 10.730533)">
                    <path d="M6.6666665,0 L6.20933318,0 L6.22399984,2.57999994 L6.19999985,2.57999994 L5.1653332,0.0066666665 L4.88799988,0.0066666665 L3.8639999,2.57999994 L3.85066657,2.57999994 L3.85066657,0.0146666663 L3.39466658,0.0146666663 L3.39466658,3.04266659 L4.15733323,3.03733326 L5.02799987,0.898666644 L5.93066652,3.03733326 L6.68133317,3.02799992 L6.6666665,0 Z M2.84399993,2.57999994 L1.86133329,2.58399994 L1.84399995,0.0066666665 L1.38799997,0.0146666663 L1.38799997,2.57999994 L0.409333323,2.57999994 L0.402666657,3.04266659 L2.84399993,3.03733326 L2.84399993,2.57999994 Z" id="path370"></path>
                </g>
            </g>
        </g>
    </g>
</svg>
