<svg width="381" height="138" xmlns="http://www.w3.org/2000/svg"><defs><linearGradient x1="34.035%" y1="16.755%" x2="95.068%" y2="126.901%" id="a"><stop stop-color="#00275D" offset="0%"/><stop stop-color="#FFF" offset="100%"/></linearGradient></defs><g fill="none" fill-rule="evenodd"><path d="M97.794 80.783c18.514-3.695 44.41-10.494 63.834-19.164 23.153-10.52 44.226-20.988 44.62-30.107.376-7.999-9-11.147-17.73-10.232-8.302.883-22.212 5.567-40.716 16.723-14.808 9.285-38.884 29.752-49.992 42.158l-.016.622zm107.112-69.088c18.475.032 27.919 9.114 27.082 18.116-1.767 19.12-31.5 28.148-59.271 37.406-27.752 9.3-61.063 16.068-80.487 19.768-3.712 4.963-4.628 9.312-5.558 13.659-.931 8.699 8.304 13.676 21.24 14.313 20.354.034 47.177-6.137 84.192-22.228 21.286-9.293 45.74-23.278 59.24-31.59 3.788-2.334 9.812-7.303 12.024-3.711 1.76 2.856-4.627 6.832-7.415 8.68-12.953 8.683-35.159 21.079-58.301 32.22-38.876 17.327-76.806 26.593-108.244 26.544-34.224-.05-51.78-10.021-50.82-25.537 1.862-11.803 10.432-23.558 24.89-35.067 14.43-11.507 41.938-26.61 58.435-33.14 26.601-10.52 57.084-19.476 82.052-19.433h.941z" fill="#373535" fill-rule="nonzero"/><path d="M122.387 102.724c-16.495-6.533-44.004-21.63-58.438-33.145-14.453-11.5-23.025-23.254-24.889-35.055-.957-15.515 16.596-25.496 50.823-25.545 31.436-.052 69.366 9.224 108.242 26.554 23.143 11.127 45.348 23.535 58.302 32.208 2.785 1.856 9.174 5.835 7.413 8.679-2.21 3.593-8.237-1.368-12.023-3.7-13.497-8.319-37.953-22.304-59.24-31.597-37.014-16.095-63.837-22.267-84.193-22.231-12.937.639-22.17 5.625-21.24 14.323.935 4.34 1.85 8.686 5.56 13.649 19.423 3.701 52.735 10.476 80.49 19.77 27.767 9.258 57.503 18.29 59.266 37.414.84 8.99-8.605 18.08-27.081 18.11l-.942.006h-.15c-24.935 0-55.351-8.944-81.9-19.44zm-24.1-49.028c11.104 12.4 35.181 32.867 49.992 42.16 18.498 11.147 32.41 15.833 40.713 16.713 8.73.914 18.107-2.233 17.728-10.233-.393-9.116-21.465-19.579-44.617-30.104-19.426-8.67-45.322-15.464-63.834-19.165l.018.629z" fill="url(#a)" fill-rule="nonzero" transform="matrix(1 0 0 -1 -1 140)"/><path d="M99.813 114.048l-42.22-.244 1.129-1.635-3.217-.036 3.04-4.405c3.434-4.995 5.304-9.513 6.816-13.657l4.012-10.714 2.737-2.065L77.902 65.4l-1.521-1.612 10.98-30.145-10.356-.067.596-1.644-2.678-.019 6.463-17.753L114.57.172l21.306.095-.604 1.644 2.694.017-34.932 95.917c-1.486 4.116-2.912 8.6-3.113 13.467l-.11 2.736z" fill="#373535" fill-rule="nonzero"/><path d="M78.958 29.095l4.67-12.813 31.506-13.279 16.714.084L98.293 95.23c-1.747 4.806-3.055 9.305-3.275 14.302l-34.124-.202c3.426-4.968 5.382-9.459 7.135-14.288l23.984-65.864-13.055-.083z" fill="#E43337" fill-rule="nonzero"/><path d="M78.958 29.095l4.67-12.813 31.506-13.279 16.714.084L98.293 95.23c-1.747 4.806-3.055 9.305-3.275 14.302l-34.124-.202c3.426-4.968 5.382-9.459 7.135-14.288l23.984-65.864-13.055-.083z" stroke="#FFF" stroke-width=".5"/><path d="M45.247 70.631c.25-.645.586-1.83.174-2.417-.217-.321-1.09-1.075-4.498-1.075m24.757-1.661l-.546 2.2h.14c1.446-1.697 2.528-2.2 4.51-2.2l14.64.032c5.466 0 7.406 1.799 5.9 5.79l-4.069 10.933c-.948 2.57-1.159 3.853-1.117 4.86l-13.263-.015c.763-1.017 1.528-2.295 2.485-4.864l4.38-11.75c.431-1.153.104-1.562-1.477-1.569l-10.116-.01c-1.57-.018-2.205.402-2.635 1.546l-4.38 11.77c-.958 2.568-1.15 3.842-1.126 4.849l-13.263-.013c.779-1.01 1.535-2.286 2.492-4.863l4.416-11.845c.967-2.576 1.167-3.864 1.132-4.886l11.896.035z" fill="#373535" fill-rule="nonzero"/><path d="M45.38 81.26l-3.274.402c-1.375.17-2.652.26-3.65.26l-20.316-.026.747-2.013 26.545.032 3.004-8.084c.856-2.276.774-4.14-.2-5.548-1.192-1.737-3.518-2.536-7.305-2.552L18.644 63.7c-6.248 0-10.108 2.247-11.83 6.881L3.07 80.594c-.839 2.276-.783 4.138.195 5.553 1.206 1.727 3.524 2.532 7.309 2.532l.01-1.704v-1.704 1.704l-.01 1.704 30.784.052 4.021-7.472z" fill="#373535" fill-rule="nonzero"/><path d="M92.458 72.099c.924-2.467.84-4.505-.26-6.07-1.738-2.5-5.263-2.785-7.774-2.803l-14.64-.007a8.228 8.228 0 0 0-1.209.068l.025-.075-17.157-.037.059 2.353c.025.587-.059 1.56-.967 4.003L46.11 81.376c-.948 2.519-1.594 3.534-2.155 4.264l-2.873 3.654 20.273.04-.084-2.35c-.016-.58.077-1.554.984-3.997l4.372-11.75c.019-.027.035-.053.043-.06.11-.026.242-.035.477-.026l8.916.01-3.828 10.266c-.941 2.51-1.596 3.527-2.167 4.247l-2.844 3.66 20.24.024-.068-2.342c-.025-.57.068-1.544.975-3.994l4.087-10.923z" fill="#373535" fill-rule="nonzero"/><path d="M233.943 81.561a.144.144 0 0 0-.032.068c-.075.01-.235.016-.468.023l-9.346-.013 1.338-3.554c.016-.024.024-.033.024-.058.1-.007.268-.026.486-.026l9.318.019-1.32 3.541zm-117.752-.166c-.026.014-.043.032-.043.049a2.407 2.407 0 0 1-.477.027l-8.26-.011 3.784-10.165c.02-.027.009-.06.02-.092l8.754.024-3.778 10.168zM297.619 72.4c.932-2.45.838-4.498-.251-6.077-1.73-2.476-5.267-2.777-7.783-2.777l-14.632-.026c-.412 0-.821.026-1.21.074l.025-.074-17.157-.026.074 2.353c.018.561-.065 1.525-.99 3.993l-4.407 11.854c-.873 2.276-1.477 3.324-2.015 4.046.142-.596.37-1.376.798-2.476l4.069-10.93c.9-2.46.816-4.498-.265-6.068-1.724-2.487-5.266-2.79-7.784-2.79l-29.047-.048-13.697-.016c-1.279 0-2.454.064-3.511.25l.044-.25-16.456-.028.084 2.343c.036.587-.075 1.555-.99 4.005l-4.417 11.844c-.47 1.286-1.518 1.782-2.476 2.042.051-.15.103-.295.178-.464l7.372-19.778-18.219-.025.093 2.35c.016.58-.077 1.554-.993 3.998l-4.388 11.76a.108.108 0 0 0-.016.052 2.291 2.291 0 0 1-.487.023l-8.908-.006 6.775-18.186-17.26-.032 4.08-10.794h-1.53l.01-.03-15.119-.031-1.57-.059v.052h-2.906l1.934-5.274h5.706l2.946-8.024-5.698-.01 1.451-3.996-11.97-.066-1.429 4.053-3.021-.015-14.47-.028c-2.547 0-5.963 1.052-7.826 6.139l-.713 1.923c-.27.748-.998 2.712-.504 4.626l-.738-.277-4.442 9.09 18.813.035c3.433.007 6.06-1.496 7.504-4.264.103.804.363 1.526.821 2.167.656.961 2.007 2.115 4.628 2.12l8.167.01c-.14.386-.285.773-.425 1.175l-.666 1.796c-.786-.286-1.629-.342-2.418-.333l-14.356-.028c-6.479-.013-10.526 2.36-12.347 7.247L89.948 80.52c-.923 2.459-.84 4.516.253 6.077 1.73 2.486 5.271 2.779 7.78 2.79l14.902.013c.662 0 1.301-.065 1.905-.233l-.007.233 16.603.035-.084-2.35c-.016-.57.077-1.545 1-3.996l6.624-17.52v.09c.017.573-.075 1.556-1 4.016l-4.08 10.913c-.896 2.45-.812 4.501.27 6.079 1.72 2.492 5.262 2.785 7.773 2.785l14.633.016c.435 0 .84-.016 1.224-.068l-.025.079 17.16.024 18.468.033-.084-2.36c-.016-.57.077-1.553 1-3.985l4.053-10.88c.103-.026.279-.052.479-.052l4.533.016c3.628 0 4.399.117 5.657.312l2.428.344.41-.698 1.456-.225c-1.984 1.344-3.644 3.525-4.939 7.001-.907 2.45-1.747 5.564-.117 7.924 1.613 2.302 4.709 2.619 7.521 2.619l14.767.036c1.04 0 1.938-.085 2.744-.276l-.052.276 13.066.016h2.876l17.379.033-.075-2.35c-.026-.564.075-1.546.991-3.996l4.383-11.754c.008-.016.008-.041.008-.058.106-.008.26-.026.493-.016l8.9.008-3.81 10.258c-.942 2.52-1.607 3.532-2.167 4.266l-2.871 3.657 20.283.027-.1-2.358c-.02-.564.074-1.53 1.004-3.988l4.056-10.932zm35.516 8.49a2.214 2.214 0 0 0-.114.385l-2.236.26a31.418 31.418 0 0 1-3.592.262l-14.858-.028 3.787-10.164c0-.025.021-.032.041-.061.083-.007.243-.023.47-.023l16.077.023c.94 0 2.09.095 3.347.263l.438.058-3.36 9.024zM379.3 66.451c-1.72-2.487-5.264-2.79-7.782-2.79l-22.296-.033c-3.92 0-6.924.875-9.099 2.638l1.05-2.646-29.158-.038c-6.497-.011-10.523 2.362-12.348 7.23L295.93 80.84c-.914 2.45-.846 4.499.272 6.077 1.72 2.483 5.254 2.778 7.764 2.787l27.424.033 1.394-4.012c.154.446.346.858.612 1.242 1.732 2.485 5.267 2.78 7.767 2.78l32.092.049 2.99-8.637-3.603.441c-1.394.161-2.627.263-3.584.263l-19.518-.032.338-.891 26.528.052 3.154-8.464c.908-2.457.823-4.508-.26-6.076z" fill="#373535" fill-rule="nonzero"/><path d="M57.704 85.74l-16.479-.015 1.317-1.68c.614-.805 1.342-1.92 2.344-4.59l4.424-11.846c.974-2.637 1.075-3.744 1.042-4.465l-.019-1.075 14.297.017-.126.57c.821-.404 1.728-.57 2.896-.57l14.632.032c3.57 0 5.71.724 6.774 2.25.856 1.228.89 2.889.126 4.954l-4.078 10.91c-.982 2.638-1.093 3.748-1.06 4.469l.026 1.09-16.479-.033 1.327-1.67c.62-.816 1.35-1.931 2.341-4.592l4.381-11.752a.527.527 0 0 0 .034-.135 3.2 3.2 0 0 0-.527-.015l-10.133-.02c-1.259-.006-1.426.244-1.636.874L58.744 80.2c-.988 2.636-1.092 3.745-1.066 4.465l.026 1.075zm81.808.135c-3.558 0-5.71-.73-6.768-2.265-.847-1.227-.882-2.89-.116-4.944l4.07-10.923c.992-2.635 1.091-3.735 1.067-4.475l-.032-1.073 15.15.024-6.717 18.024a.278.278 0 0 1-.049.127 4.1 4.1 0 0 0 .539.033l10.133.015c1.267-.007 1.417-.25 1.645-.89l4.39-11.742c.982-2.636 1.093-3.736 1.066-4.467l-.042-1.081 15.178.013-6.758 18.119c-.98 2.636-1.11 3.736-1.074 4.466l.042 1.09-14.323-.032.145-.555c-.817.387-1.746.555-2.908.555l-14.638-.02zm33.711.052l1.302-1.679c.632-.808 1.344-1.932 2.353-4.6l4.404-11.846c.995-2.628 1.093-3.736 1.077-4.459l-.034-1.072 13.726.015-.126.765c1.325-.604 2.996-.765 5.053-.765l12.584.017-4.121 6.95-.68-.091c-1.974-.276-3.274-.464-7.834-.47h-4.5c-.88-.008-1.418.226-1.512.46l-4.196 11.25c-.972 2.636-1.092 3.726-1.076 4.466l.043 1.075-16.463-.016zM18.082 71.385l12.413.02L31.9 67.68c.007-.052.026-.086.043-.138a3.409 3.409 0 0 0-.539-.017L20.87 67.51c-1.27-.009-1.428.252-1.664.871l-1.124 3.005zM8.199 85.673c-3.55-.006-5.706-.72-6.765-2.257-.85-1.225-.892-2.879-.117-4.945l3.737-10.006C6.697 64.05 10.257 62 16.242 62.01l22.312.027c3.544.015 5.693.728 6.777 2.265.84 1.227.872 2.888.107 4.951l-2.86 7.641-26.521-.036-1.191 3.194c-.035.042-.043.085-.052.117.12.023.304.032.545.032l20.704.033c1.007 0 2.283-.092 3.76-.265l1.99-.228-3.224 5.985-30.39-.052z" fill="#E43337" fill-rule="nonzero"/><path d="M119.297 67.809l-4.35 11.652c-.234.633-.367.892-1.66.892l-10.537-.016c-.244 0-.41-.02-.537-.035.017-.043.033-.081.043-.133l4.356-11.654c.228-.622.377-.89 1.656-.882l10.549.026c.23-.01.396 0 .532.019 0 .033-.043.084-.052.13zm19.13-13.422l-8.426-.006.043-.103h-9.96a.598.598 0 0 0 .086-.217l3.182-8.68h5.698l1.636-4.432-5.696-.02 1.47-4.002-8.144-.052-1.42 4.039-4.35-.008-14.412-.01c-2.87-.007-4.937 1.645-6.17 4.963l-.688 1.914c-.74 1.989-.747 3.442-.052 4.44.588.846 1.629 1.278 3.048 1.285l7.202.005-.176.523c-.126.321-.512.361-.662.355l-7.17-.02c-2.158.01-2.685-.066-3.324-.3l-.882-.327-2.476 5.068 15.926.028c3.114.007 5.304-1.453 6.32-4.216l1.386-3.777c.545-1.462.51-2.655-.11-3.546-.662-.937-1.846-1.39-3.626-1.398l-6.767-.01.093-.276c.1-.201.124-.276.436-.27l7.092.017c2.2 0 2.679.177 3.216.379l.99.35.27-.73 3.272.01-2.801 7.606c-.724 1.946-.715 3.485.025 4.534.61.888 1.688 1.34 3.148 1.35l6.967.009c-.117.328-.244.67-.377 1.05l-1.182 3.18c-.113-.085-.204-.166-.312-.243-.722-.598-1.736-.68-2.738-.68l-14.356-.018c-6.002-.026-9.56 2.034-11.198 6.45l-3.734 9.997c-.772 2.073-.731 3.736.1 4.944 1.065 1.547 3.23 2.257 6.798 2.268l14.895.016a6.426 6.426 0 0 0 3.19-.855l-.026.87 14.052.01-.035-1.082c-.016-.724.076-1.831 1.07-4.467l9.66-25.915zm81.557 26.1c.128.01.294.032.544.019l10.53.032c1.265-.01 1.408-.262 1.652-.9l1.95-5.195-11.085-.017c-1.283 0-1.424.252-1.659.873l-1.889 5.053c-.01.05-.035.092-.043.135zm-6.606 5.49c-2.51 0-5.24-.251-6.516-2.098-1.03-1.47-.948-3.57.261-6.801 2.528-6.8 6.416-8.16 11.833-8.15l16.76.024c.992.008 1.074-.234 1.115-.328l.363-.965a.556.556 0 0 0-.218-.01l-17.906-.031c-1.958-.008-3.148.05-5.778.444l-2.138.318 3.508-6.06 29.054.035c3.55 0 5.708.72 6.782 2.25.842 1.223.882 2.895.112 4.96l-4.064 10.922c-.999 2.636-1.103 3.736-1.086 4.467l.035 1.073-13.279-.016.132-.957c-1.173.686-2.466.957-4.189.948l-14.781-.024zm59.14.089l1.31-1.666c.629-.823 1.35-1.915 2.333-4.602l4.408-11.75c.016-.052.016-.087.033-.122a3.182 3.182 0 0 0-.528-.033l-10.124-.015c-1.286 0-1.426.252-1.664.882l-4.388 11.745c-.966 2.65-1.09 3.744-1.058 4.48l.05 1.075-16.504-.032 1.31-1.679c.648-.808 1.366-1.916 2.358-4.584l4.415-11.845c.976-2.63 1.081-3.735 1.05-4.467l-.027-1.084 14.305.028-.14.561c.837-.402 1.763-.552 2.921-.56l14.647.023c3.544 0 5.695.723 6.759 2.256.84 1.227.89 2.89.117 4.963l-4.07 10.914c-.982 2.63-1.1 3.727-1.058 4.464l.032 1.076-16.487-.028zm54.802.081l-26.562-.037c-3.535 0-5.684-.721-6.748-2.248-.848-1.227-.89-2.899-.127-4.953l3.736-10.007c1.619-4.348 5.272-6.45 11.188-6.45l27.36.037-2.333 5.858-.804-.108a26.875 26.875 0 0 0-3.518-.261l-16.07-.033c-1.275 0-1.436.253-1.662.87l-4.35 11.672c-.023.042-.031.09-.047.127.135.015.3.023.535.023l16.077.036c1-.008 2.283-.103 3.743-.271l1.654-.192-2.072 5.937zm21.362-14.257l12.416.011 1.404-3.722c0-.048.018-.092.024-.131-.117-.019-.285-.019-.52-.037l-10.56-.008c-1.258-.007-1.394.25-1.646.882l-1.118 3.006zm21.306 14.322l-31.202-.041c-3.541-.011-5.692-.722-6.757-2.259-.848-1.225-.89-2.887-.117-4.947l3.736-9.994c1.645-4.418 5.202-6.466 11.205-6.456l22.281.032c3.558 0 5.726.721 6.782 2.25.833 1.224.892 2.895.109 4.959l-2.853 7.65-26.535-.043-1.177 3.182c-.018.042-.032.092-.05.127.127.016.302.032.536.032l20.735.027c.992 0 2.277-.094 3.739-.263l1.652-.183-2.084 5.927z" fill="#E43337" fill-rule="nonzero"/><path d="M31.237 72.462l1.643-4.414c.413-1.162.1-1.563-1.476-1.572l-10.527-.024c-1.587.013-2.227.42-2.636 1.558l-1.645 4.418 14.64.034zM15.32 75.82l-1.447 3.86c-.416 1.153-.09 1.562 1.47 1.562l20.737.026c1.022.006 2.35-.084 3.869-.262l-1.99 3.66-29.75-.041c-5.483 0-7.407-1.788-5.92-5.784l3.737-10.007c1.478-3.996 4.76-5.79 10.232-5.777l22.28.036c5.475 0 7.403 1.813 5.927 5.792l-2.61 6.976-26.535-.041zm47.983-12.692l-.561 2.197h.15c1.453-1.696 2.527-2.197 4.533-2.197l14.606.024c5.486.008 7.43 1.804 5.911 5.8l-4.064 10.922c-.964 2.579-1.156 3.862-1.123 4.868l-13.265-.01c.781-1.022 1.528-2.307 2.485-4.868l4.383-11.751c.428-1.15.1-1.568-1.47-1.561l-10.114-.016c-1.572-.02-2.208.402-2.63 1.542l-4.38 11.744c-.966 2.579-1.174 3.872-1.134 4.888l-13.265-.024c.784-1.012 1.537-2.304 2.485-4.878l4.433-11.84c.948-2.558 1.15-3.854 1.118-4.86l11.902.02zm94.947 21.724l.545-2.2h-.136c-1.444 1.697-2.532 2.2-4.508 2.2l-14.639-.026c-5.467-.01-7.404-1.804-5.908-5.8l4.07-10.913c.965-2.576 1.175-3.861 1.131-4.868l12.592.01-6.202 16.62c-.438 1.15-.11 1.569 1.47 1.569l10.124.006c1.568.01 2.198-.41 2.627-1.552l4.381-11.752c.967-2.57 1.175-3.862 1.134-4.87l12.585.02L171.288 80c-.967 2.584-1.168 3.869-1.133 4.878l-11.906-.026zm50.661-16.722c-2.032-.286-3.4-.472-7.976-.49l-4.514.01c-1.294-.01-2.207.398-2.483 1.135l-4.19 11.248c-.949 2.57-1.167 3.852-1.137 4.868l-13.256-.016c.79-1.023 1.528-2.301 2.506-4.87l4.405-11.843c.957-2.568 1.159-3.852 1.143-4.862l11.41.018-.397 2.332h.148c.984-1.736 2.721-2.332 6.408-2.332l10.763.014-2.83 4.788zm14.657 5.245c-1.56 0-2.199.413-2.636 1.572l-1.882 5.044c-.416 1.141-.116 1.563 1.471 1.57l10.528.009c1.576 0 2.224-.411 2.644-1.555l2.459-6.612-12.584-.028zm21.978 6.743c-.957 2.568-1.158 3.86-1.117 4.868l-11.023-.015.296-2.25h-.145c-1.67 1.745-3.005 2.25-5.405 2.25l-14.775-.027c-5.59-.01-7.497-1.57-5.272-7.496 2.192-5.928 5.247-7.49 10.852-7.472l16.757.018c1.102.009 1.815-.27 2.102-1.01l.502-1.366c.276-.731-.244-1.016-1.35-1.007l-17.908-.036c-1.99 0-3.223.043-5.916.447l2.121-3.671 28.45.044c5.467.017 7.405 1.807 5.918 5.799l-4.087 10.924zm22.925-16.688l-.544 2.206.132.01c1.454-1.706 2.53-2.2 4.526-2.2l14.625.016c5.472.016 7.397 1.814 5.916 5.79l-4.07 10.932c-.974 2.578-1.174 3.854-1.142 4.87l-13.263-.018c.795-1.016 1.535-2.3 2.494-4.868l4.39-11.753c.426-1.15.102-1.561-1.47-1.561l-10.115-.019c-1.588 0-2.219.404-2.653 1.564l-4.375 11.743c-.956 2.568-1.159 3.853-1.124 4.876l-13.272-.032c.779-1.007 1.544-2.292 2.51-4.85l4.4-11.846c.971-2.578 1.174-3.862 1.133-4.87l11.902.01zm44.972 3.474c-1.579 0-2.224.405-2.636 1.56l-4.366 11.662c-.413 1.148-.084 1.555 1.476 1.562l16.087.034c1.01-.01 2.35-.102 3.853-.278l-1.276 3.668-25.797-.052c-5.473.01-7.424-1.78-5.927-5.782l3.743-10.01c1.488-3.992 4.752-5.78 10.217-5.774l25.823.052-1.479 3.668c-1.357-.192-2.617-.294-3.658-.294l-16.06-.016zm48.372 6.046l1.661-4.418c.42-1.14.091-1.545-1.486-1.56l-10.527-.017c-1.57.008-2.21.418-2.625 1.56l-1.656 4.408 14.633.026zm-15.901 3.374l-1.435 3.844c-.428 1.156-.108 1.579 1.468 1.579l20.717.022a36.282 36.282 0 0 0 3.863-.257l-1.257 3.659-30.478-.032c-5.46-.018-7.402-1.815-5.906-5.795l3.728-10.023c1.484-3.98 4.768-5.774 10.23-5.758l22.296.032c5.467 0 7.406 1.798 5.922 5.794l-2.61 6.978-26.538-.043zM108.023 54.32c-.862 2.36-2.636 3.543-5.338 3.534l-14.263-.016 1.341-2.738c.815.312 1.544.37 3.703.37l7.144.024c.79-.007 1.403-.41 1.636-1.039l.303-.883c.26-.646-.075-1.049-.858-1.056h-7.436c-2.434 0-3.106-1.393-2.032-4.326l.712-1.922c1.076-2.937 2.746-4.28 5.182-4.26l13.986.006-1.018 2.794c-.67-.25-1.256-.437-3.558-.437l-7.112-.015c-.7.015-1.165.32-1.398.94l-.279.756c-.235.635.01.94.704.94l7.228.008c2.695.007 3.603 1.182 2.737 3.551l-1.384 3.768z" fill="#FFF"/><path d="M120.277 68.172l-4.362 11.65c-.415 1.153-1.059 1.573-2.62 1.573l-10.528-.02c-1.576 0-1.904-.418-1.478-1.56l4.351-11.66c.417-1.151 1.056-1.564 2.635-1.564l10.526.02c1.578.006 1.898.412 1.476 1.56zm16.664-12.744l-8.553-.008.027-.033h-8.178c-1.034 0-1.352-.302-.858-1.62l3.442-9.368 5.703.008.864-2.368h-5.7l1.468-4.011-5.917-.036-1.41 4.03-3.082.009-.874 2.358h3.092l-3.309 8.999c-1.143 3.09-.16 4.484 2.181 4.484l8.154.015c-.163.654-.432 1.426-.78 2.385l-1.924 5.139-.27.014c-.217-.88-.421-1.426-.914-1.762-.412-.367-1.124-.451-2.082-.451l-14.373-.019c-5.472-.018-8.737 1.77-10.215 5.768l-3.745 10.004c-1.487 3.999.461 5.795 5.908 5.803l14.92.016c1.77 0 3.273-.872 4.181-2.013h.127l-.052 2.013 11.896.027c-.033-1.016.157-2.292 1.124-4.87l9.15-24.513z" fill="#FFF"/><path d="M157.73 133.564l-1.392-.015.007-11.2h1.397zm3.443-6.028h.028c.422-.745 1.243-1.14 2.095-1.14 1.964.011 2.47 1.326 2.47 3.027l-.02 4.141h-1.323v-3.986c0-1.184-.164-1.992-1.528-2-1.731 0-1.722 1.522-1.731 2.786l-.005 3.2-1.336-.014.005-6.943h1.345v.93zm7.914.014h.035c.421-.745 1.243-1.142 2.1-1.142 1.948.004 2.456 1.328 2.456 3.03l-.015 4.134-1.333.007.013-3.988c.01-1.183-.164-1.999-1.526-1.999-1.73 0-1.736 1.515-1.73 2.779l-.006 3.208-1.335-.015.005-6.957 1.35.017-.014.927zm7.299 2.571c-.005 1.305 1.044 2.419 2.372 2.43 1.321 0 2.38-1.115 2.37-2.42.014-1.323-1.042-2.43-2.357-2.438-1.334.008-2.385 1.1-2.385 2.428m6.093.01c-.005 2.089-1.644 3.69-3.72 3.69-2.085 0-3.724-1.613-3.714-3.708.005-2.085 1.642-3.69 3.718-3.69 2.086 0 3.711 1.605 3.716 3.707m3.736.857l2.022-4.336h1.491l-3.52 7.187-3.47-7.196h1.505zm9.642-.853c0-1.348-.815-2.5-2.248-2.5-1.388 0-2.203 1.195-2.203 2.496-.007 1.307.777 2.519 2.193 2.519 1.452.01 2.274-1.143 2.258-2.515zm1.273 3.473l-1.352.008.008-1.093h-.028c-.55.792-1.363 1.327-2.377 1.315-2.122.005-3.324-1.764-3.308-3.759.006-1.9 1.256-3.635 3.286-3.641 1.022.013 1.854.542 2.4 1.372h.04l-.006-1.144 1.344-.014-.007 6.956zm3.405.015l-1.334-.014v-5.702h-.723l.007-1.24h.729l.007-2.674 1.337.008-.008 2.665h1.308v1.241h-1.308zm3.837-6.952l-1.36-.005v6.958h1.352l.008-6.952zm-.665-4.12c-.523 0-.916.415-.928.937 0 .505.43.906.921.906.508 0 .927-.401.923-.9a.925.925 0 0 0-.916-.942zm5.313 8.47l2.029-4.34 1.496.005-3.524 7.186-3.479-7.206 1.495.014zm9.157-1.649c-.163-1.03-.85-1.737-1.915-1.737-1.033 0-1.813.745-1.977 1.737h3.892zm-3.972 1.015c.016 1.185.824 2.3 2.096 2.306 1.036 0 1.584-.512 2.092-1.354l1.128.646c-.656 1.194-1.877 1.894-3.237 1.894-2.12-.007-3.419-1.606-3.407-3.656 0-2.143 1.144-3.75 3.393-3.75 2.216.006 3.244 1.648 3.26 3.707l-.009.213-5.316-.006zm15.037-2.971l.279.004c.672 0 1.344-.097 1.334-.941.01-.843-.598-.964-1.29-.957h-.312l-.01 1.894zm-3.979-4.958l4.92.009c2.524 0 4.666 1.068 4.666 3.9 0 1.685-.659 2.397-2.166 2.899l-.014.093c.21.163.466.341.693.672l2.43 3.635h-4.707l-1.779-3.602-.068.008v3.594l-3.988-.014.013-11.194zm15.742 8.395c.722.004 1.024-.572 1.036-1.188-.02-.602-.421-1.056-1.036-1.051-.604-.005-1 .493-.99 1.081-.016.628.28 1.158.99 1.158zm1.024 1.782h-.102c-.692.746-1.312 1.23-2.398 1.223-2.144-.008-3.336-2.177-3.324-4.092 0-1.995 1.207-4.157 3.447-4.157.948 0 1.725.34 2.296 1.113h.081l-.12-.928 3.768.007-.013 7.886-3.765-.008.13-1.044zm11.471-3.404c-.401-.35-.86-.666-1.417-.666-.682 0-1.19.457-1.19 1.177a1.108 1.108 0 0 0 1.107 1.124c.612.014 1.057-.294 1.5-.6l-.167 3.24c-.596.196-1.262.372-1.932.372-2.566 0-4.389-1.454-4.38-4.098.006-2.33 1.714-4.158 4.07-4.158.805 0 1.646.143 2.417.408l-.008 3.2zm1.87-3.424l3.82.017v7.884l-3.834-.005.014-7.896zm4.038-2.427c0 1.292-1.014 1.859-2.129 1.859-1.095-.01-2.101-.576-2.11-1.865 0-1.146.914-1.843 2.117-1.838 1.206 0 2.106.692 2.122 1.844zm5.262 3.699h.1c.743-.843 1.314-1.435 2.542-1.428 1.964 0 2.73 1.472 2.73 3.213v4.858h-3.845l.008-3.858c-.008-.464 0-1.114-.657-1.114-.633.01-.633.66-.628 1.114l-.005 3.854-3.842-.01.012-7.884h3.735l-.15 1.255zm11.615 3.83c.67-.008.972-.502.972-1.1.006-.594-.352-1.143-.993-1.143-.621 0-1.059.505-1.05 1.128-.014.628.414 1.107 1.071 1.115zm4.558 2.37c-.015 3.074-2.535 4.322-5.286 4.315-1.214 0-2.265-.215-3.388-.628l-.382-.13.849-2.665c.721.623 1.819.975 2.763.964 1.033.015 1.664-.742 1.757-1.72l.072-.821-.107.007c-.378.873-1.408 1.308-2.314 1.308-2.171 0-3.384-2.172-3.392-4.136.012-1.963 1.226-4.122 3.42-4.108 1.005 0 1.782.473 2.3 1.316l.098-.007-.108-1.13 3.718.009v7.426zm8.177-10.728h3.906l3.63 6.213h.129c-.164-.927-.338-1.899-.33-2.855l-.008-3.357 3.894.006-.015 11.206-3.901-.007-3.554-5.892-.13.007c.137.765.25 1.508.256 2.242l-.007 3.635h-3.895l.026-11.197zm16.764 3.337v4.062c-.015.471.015.951.643.959.634 0 .662-.488.658-.944v-4.07h3.806l-.014 4.457c0 2.5-2.161 3.614-4.45 3.6-2.283.006-4.451-1.115-4.451-3.615l-.005-4.457 3.813.008zm11.078.114l1.285-.058-.016 3.022-1.269-.07-.013 4.892-3.866-.01.008-4.893-.936.081.006-3.016.94.052v-2.642l3.869.006zm8.708 3.636c-.41-.244-.686-.428-1.177-.439-.997.01-1.496.595-1.496 1.567l-.021 3.036-3.82-.008.006-7.886h3.835l-.084 1.058.09.014c.68-1.05 1.38-1.273 2.674-1.242l-.007 3.9zm1.25 4.17l3.827.007.021-7.892h-3.83l-.018 7.885zm1.94-12.169c-1.205 0-2.118.697-2.11 1.84 0 1.292 1.006 1.865 2.096 1.857 1.117.015 2.116-.556 2.124-1.841-.008-1.15-.91-1.841-2.11-1.856zm9.137 7.257c.01-.543-.384-1.03-.926-1.03-.587 0-.868.476-.875 1.036l1.801-.006zm-1.801 1.626c0 .643.108 1.35.91 1.358a.78.78 0 0 0 .769-.658l3.738.014c-.516 1.894-2.638 2.764-4.46 2.764-2.47 0-4.748-1.278-4.748-4.004.014-2.615 2.036-4.244 4.54-4.244 2.823.013 5.024 1.828 4.83 4.77h-5.58zm10.567-3.314l.09.007c.758-.863 1.316-1.442 2.55-1.438 1.95 0 2.73 1.475 2.73 3.216l-.008 4.846h-3.836l.006-3.843c.008-.46.008-1.115-.655-1.115-.633-.009-.643.655-.633 1.104l-.024 3.854-3.814-.01.006-7.878 3.742-.007-.154 1.264zm11.377-1.143l1.287-.056-.01 3.028-1.29-.085v4.906l-3.857-.008.008-4.898-.947.07.007-3.013.932.05.008-2.635h3.861zm2.585 4.715l.228.156c.53.328 1.3.73 1.959.721.257.015.57-.135.562-.435.008-.428-.464-.428-.772-.485-1.27-.17-2.46-.7-2.46-2.187.004-1.969 1.998-2.756 3.69-2.756.986 0 2.194.198 3.072.679l-.95 2.179c-.494-.356-1.14-.651-1.766-.656-.242 0-.547.076-.547.357 0 .383.41.41.943.499 1.361.234 2.476.698 2.476 2.3 0 2.041-2.043 2.9-3.822 2.9-1.24-.007-2.456-.408-3.598-.902l.985-2.37zm13.001-1.843h-.457l.015-2.58h-.024l-1.035 2.573h-.277l-1.024-2.573h-.014v2.565h-.456v-3.028l.763.006.87 2.138.903-2.138.75.01-.014 3.027zm-3.822-2.58l-.983-.004-.017 2.577-.456-.008v-2.565h-.98l-.006-.463 2.442.006v.457z" fill="#00275D" fill-rule="nonzero"/></g></svg>