<?xml version="1.0" encoding="UTF-8"?>
<svg width="18px" height="20px" viewBox="0 0 18 20" version="1.1" xmlns="http://www.w3.org/2000/svg" xmlns:xlink="http://www.w3.org/1999/xlink">
    <!-- Generator: Sketch 51.2 (57519) - http://www.bohemiancoding.com/sketch -->
    <title>today</title>
    <desc>Created with Sketch.</desc>
    <defs></defs>
    <g id="Страница-отчета-о-прошедших-соревнованиях-(Page-reports-on-competition)" stroke="none" stroke-width="1" fill="none" fill-rule="evenodd" fill-opacity="0.54">
        <g id="Decktop.Page-reports-on-competition-v0.0" transform="translate(-92.000000, -320.000000)" fill="#000000">
            <g id="today" transform="translate(92.000000, 320.000000)">
                <path d="M16,2 L15,2 L15,0 L13,0 L13,2 L5,2 L5,0 L3,0 L3,2 L2,2 C0.89,2 0.01,2.9 0.01,4 L0,18 C0,19.1045695 0.8954305,20 2,20 L16,20 C17.1,20 18,19.1 18,18 L18,4 C18,2.9 17.1,2 16,2 Z M16,18 L2,18 L2,7 L16,7 L16,18 Z M4,9 L9,9 L9,14 L4,14 L4,9 Z" id="Shape"></path>
            </g>
        </g>
    </g>
</svg>