<svg width="44" height="44" xmlns="http://www.w3.org/2000/svg"><g fill="none" fill-rule="evenodd"><path d="M0 0h44v44H0z"/><circle stroke="#000" stroke-width="2" cx="22" cy="22" r="21"/><path d="M13.112 18.932c-.508-.318-.987-.756-1.437-1.313-.45-.556-.675-1.074-.675-1.55 0-.592.17-1.084.51-1.478.34-.394.824-.591 1.454-.591h18.072c.531 0 .992.178 1.38.534.39.356.584.784.584 1.284 0 .599-.2 1.17-.602 1.716a5.632 5.632 0 0 1-1.497 1.398c-3.078 1.977-4.993 3.208-5.746 3.693-.082.053-.256.168-.522.346-.266.179-.486.323-.662.432-.176.11-.39.233-.639.37-.25.136-.485.238-.706.306a2.088 2.088 0 0 1-.614.102h-.024c-.189 0-.393-.033-.614-.102a3.854 3.854 0 0 1-.706-.306c-.25-.137-.463-.26-.639-.37-.176-.11-.397-.253-.663-.432-.265-.178-.44-.293-.521-.346a624.102 624.102 0 0 0-3.217-2.074c-1.4-.897-2.238-1.437-2.516-1.62zm18.66 1.216A6.65 6.65 0 0 0 33 19.159v9.023c0 .5-.192.928-.577 1.284a1.97 1.97 0 0 1-1.387.534H12.964a1.97 1.97 0 0 1-1.387-.534c-.385-.356-.577-.784-.577-1.284v-9.023c.36.371.773.701 1.24.989 2.963 1.863 4.997 3.17 6.102 3.92.466.318.845.567 1.135.744.29.179.677.36 1.16.546.483.186.933.278 1.35.278h.026c.417 0 .867-.092 1.35-.278.483-.186.87-.367 1.16-.546.29-.177.67-.426 1.136-.744 1.39-.932 3.429-2.239 6.113-3.92z" fill="#000"/></g></svg>