<svg width="44" height="44" xmlns="http://www.w3.org/2000/svg"><g fill="none" fill-rule="evenodd"><path d="M0 0h44v44H0z"/><circle stroke="#9B9B9B" stroke-width="2" cx="22" cy="22" r="21"/><path d="M15.926 28.017l.016-4.051.757-.008.757-.01-.01-.624-.009-.624-2.185-.009-2.183-.009v1.266l.739.01.739.008.008 4.018c.004 2.21.015 4.037.024 4.06.012.032.165.04.672.033l.658-.009.017-4.05zm12.604-.285c-.031-.08.011-1.017.053-1.153.095-.319.299-.474.62-.474.266 0 .435.103.549.335.072.147.08.21.09.752l.011.592h-.652c-.561 0-.655-.007-.671-.052zm1.218 4.365c.64-.18 1.082-.618 1.248-1.237.028-.105.06-.406.072-.668l.019-.474h-1.232l-.015.425c-.018.484-.067.65-.243.804-.187.165-.53.177-.753.026-.266-.18-.332-.484-.318-1.472l.01-.7 1.274-.008 1.274-.01-.016-1.041c-.02-1.163-.045-1.339-.24-1.752-.37-.782-1.398-1.176-2.252-.864-.644.236-1.024.66-1.177 1.318-.054.232-.06.44-.06 2.14 0 2.086.007 2.17.22 2.598.378.76 1.327 1.156 2.189.915zm-5.047-1.188a.448.448 0 0 0 .17-.242c.052-.151.056-.344.05-2.133-.008-1.864-.012-1.974-.072-2.096-.154-.312-.543-.342-.899-.069l-.117.089v4.252l.117.089c.263.202.552.244.751.11zm.772 1.2c.193-.056.428-.287.533-.522.202-.452.203-.463.203-3.003 0-2.085-.006-2.342-.058-2.567-.167-.722-.53-1.037-1.143-.991-.342.027-.612.163-.936.477-.14.136-.266.248-.28.248-.013 0-.025-.691-.025-1.534v-1.534H22.57V32.085h1.196v-.317c0-.21.012-.316.037-.316.02 0 .154.11.299.247.465.44.868.56 1.37.41zm-6.367-.03c.239-.09.52-.284.756-.526.109-.111.217-.201.24-.201.033 0 .044.09.044.366v.367h1.196v-6.968h-1.196V30.493l-.258.256c-.204.204-.29.266-.416.3-.214.06-.35.02-.438-.133-.066-.112-.068-.165-.078-2.957l-.008-2.842H17.753v3.018c0 3.287.003 3.359.187 3.675.2.347.67.455 1.166.269zm.508 2.907c-.777-.014-1.696-.035-2.044-.048-2.331-.084-3.932-.174-4.251-.239a2.358 2.358 0 0 1-1.262-.766c-.473-.583-.726-1.291-.848-2.381-.284-2.535-.278-5.49.017-7.935.13-1.072.452-1.846.992-2.386.309-.309.605-.48 1-.582.856-.22 7.554-.395 11.629-.304 2.353.052 4.896.162 5.572.239.874.1 1.488.554 1.913 1.415.321.65.423 1.157.554 2.718.102 1.235.127 2.005.108 3.432-.021 1.707-.13 3.21-.292 4.054-.17.893-.574 1.653-1.097 2.065-.403.319-.832.46-1.509.499l-.565.036c-.389.03-2.476.115-3.62.147-1.702.048-4.678.065-6.297.036zm-2.1-15.485c-.028-.047-.023-2.79.006-3.178.037-.498-.047-.89-.403-1.892a47.609 47.609 0 0 1-.464-1.4c-1.007-3.214-.954-3.026-.857-3.027.663-.005 1.482-.001 1.492.008.006.007.221.79.478 1.744l.478 1.764c.005.016.156-.54.336-1.234.376-1.458.587-2.262.595-2.269.016-.016.203-.02.815-.016l.676.004-.015.109c-.012.088-.474 1.644-.957 3.225l-.3 1c-.11.376-.245.822-.3.992l-.096.31v1.93c0 1.812-.004 1.933-.058 1.947-.122.034-1.404.018-1.425-.017zm8.743.116c-.334-.045-.529-.174-.663-.44-.167-.334-.167-.332-.167-3.654v-3.1h1.347l.014 2.857c.015 3.105.011 3.032.196 3.08.17.041.359-.05.593-.29l.225-.23.008-2.709.008-2.709.674-.009.673-.008V19.502l-.092.019c-.11.023-1.13.021-1.213-.003-.05-.013-.058-.06-.058-.337v-.322l-.191.187c-.44.43-.915.63-1.354.57zm-3.392-1.355c.23-.177.232-.192.244-2.187.01-1.55.005-1.814-.042-2.025-.063-.286-.174-.42-.39-.48-.28-.075-.537.085-.627.393-.068.236-.067 3.753.001 3.99.053.178.22.372.343.4a.627.627 0 0 0 .472-.091h-.001zm-.528 1.353c-.603-.073-1.157-.429-1.423-.914-.272-.495-.297-.754-.281-2.932.013-1.687.017-1.793.084-2.035.159-.576.467-.968.944-1.205a1.939 1.939 0 0 1 1.98.119c.393.255.632.625.76 1.175.056.243.062.43.062 2.133 0 2.072-.01 2.192-.222 2.64-.203.433-.663.814-1.144.948-.212.058-.58.093-.76.071z" fill="#9B9B9B"/></g></svg>