<svg xmlns="http://www.w3.org/2000/svg" viewBox="0 -30 500.673 500.673"><path d="M458.452 403.073l-.115.052v-3.609c0-35.201-27.43-72.779-60.955-83.506l-43.968-14.07.923-1.269-18.633-18.633a8 8 0 0 0-11.009-.29l-.524.471c-1.613-7.881-1.914-15.901-1.921-21.846 12.45-13.545 21.979-30.307 28.616-48.23 14.99 5.722 27.47-25.439 27.47-39.473 0-10.721-6.233-16.937-16.163-16.7.105-2.452.163-4.888.163-7.3 0-64.065-50.144-88-112-88s-112 23.935-112 88c0 2.438.06 4.901.167 7.379-9.886-.919-16.167 5.374-16.167 16.621 0 14.682 12.515 48.108 27.086 38.431 6.647 18.303 16.297 35.444 28.977 49.246-.03 5.923-.37 13.912-2.007 21.773l-.414-.373a8 8 0 0 0-11.009.29l-18.633 18.633.923 1.269-43.968 14.07c-33.525 10.727-60.955 48.305-60.955 83.506v3.609l-.115-.052c-3.692-1.678-7.885 1.021-7.885 5.077v10.676c0 4.281 2.502 8.166 6.399 9.938l9.601 4.364v43.545c0 13.255 10.745 24 24 24h352c13.255 0 24-10.745 24-24v-43.545l9.601-4.364a10.916 10.916 0 0 0 6.399-9.938V408.15c0-4.056-4.192-6.755-7.884-5.077z" fill="#fad7a5"/><path d="M306.336 340.673l31.671-34.197c-17.891-11.519-15.671-45.803-15.671-53.803h-144c10.332 29.703 78.667 80.666 128 88z" fill="#f0c891"/><path d="M122.336 500.673v-48l-80-40v-13.155c0-35.201 27.43-72.779 60.955-83.506l50.05-16.016c26.928 20.59 65.409 48.677 96.995 48.677s70.067-28.087 96.995-48.677l50.05 16.016c33.525 10.727 60.955 48.305 60.955 83.506v13.155l-80 48v40h-256z" fill="#e6ebf0"/><path d="M258.336 460.673h-16c-8.837 0-16-7.163-16-16v-96h48v96c0 8.836-7.163 16-16 16z" fill="#d2d7dc"/><path d="M250.336 348.673l-33.38 33.38c-3.476 3.476-9.235 3.024-12.127-.951l-58.493-80.428 18.633-18.633a8 8 0 0 1 11.009-.29l74.358 66.922zm0 0l33.38 33.38c3.476 3.476 9.235 3.024 12.127-.951l58.493-80.428-18.633-18.633a8 8 0 0 0-11.009-.29l-74.358 66.922z" fill="#5f69be"/><circle cx="250.336" cy="428.673" r="8" fill="#5f69be"/><circle cx="250.336" cy="388.673" r="8" fill="#5f69be"/><path d="M362.173 155.973c.105-2.452.163-4.888.163-7.3 0-64.065-50.144-88-112-88s-112 23.935-112 88c0 2.438.06 4.901.167 7.379-9.886-.919-16.167 5.374-16.167 16.621 0 14.682 12.515 48.108 27.086 38.431 16.033 44.151 49.526 81.569 100.914 81.569 50.983 0 84.35-36.831 100.53-80.527 14.99 5.722 27.47-25.439 27.47-39.473 0-10.722-6.233-16.937-16.163-16.7z" fill="#ffe1b4"/><path d="M298.336 4.673l8 16s-45-32.5-120-16c-59.455 13.08-80 56-80 56l32 64v38.5l16 8s12.506-57.547 15.428-68.5h157.645c2.921 10.953 18.928 68.5 18.928 68.5l16-8v-86.5c-.001-7.5-1.501-58.25-64.001-72z" fill="#73554b"/><path d="M40.735 428.763l81.601 37.092V439.49L42.22 403.073c-3.692-1.678-7.884 1.021-7.884 5.077v10.676c0 4.28 2.502 8.166 6.399 9.937zm419.203 0l-81.601 37.092V439.49l80.116-36.417c3.692-1.678 7.884 1.021 7.884 5.077v10.676a10.919 10.919 0 0 1-6.399 9.937z" fill="#5f69be"/><path d="M130.336 78.969v55.356c0 2.817 3.024 4.507 5.466 3.102 70.886-40.796 158.182-40.796 229.069 0 2.441 1.405 5.466-.285 5.466-3.102V78.969c0-5.233-2.733-10.171-7.292-12.74-69.945-39.409-155.47-39.409-225.415 0-4.56 2.569-7.294 7.507-7.294 12.74z" fill="#e6ebf0"/><path d="M158.088 53.011c-5.332 19.58-3.752 39.662-3.752 39.662 14-26 69.333-56 96-56 0 0-56.25-3.75-92.248 16.338z" fill="#73554b"/></svg>