<svg version="1.1" id="Layer_1" xmlns="http://www.w3.org/2000/svg" x="0" y="0" viewBox="0 0 576 576" xml:space="preserve"><style>.st0{fill:#fff}.st2{fill:none;stroke:#000;stroke-width:6.6599;stroke-miterlimit:10}.st3{fill:#ce0e2d}</style><circle class="st0" cx="288" cy="288" r="288"/><path d="M288 566.3C134.3 566.3 9.7 441.7 9.7 288 9.7 134.3 134.3 9.7 288 9.7S566.3 134.3 566.3 288c0 153.7-124.6 278.3-278.3 278.3z"/><path d="M119.8 289.7c0-92.3 74.8-167.1 167.1-167.1S454 197.4 454 289.7s-74.8 167.1-167.1 167.1c-92.3.1-167.1-74.8-167.1-167.1zm167.1-180.9c99.9 0 181 81 181 181 0 99.9-81 181-181 181s-181-81-181-181c.1-100 81.1-181 181-181z" fill-rule="evenodd" clip-rule="evenodd" fill="#fff"/><path d="M548.3 360.3H24.7l4.2-146.1h518.8z"/><path class="st0" d="M108.2 167.8l-9 13.3-.5-.3L85 146.3l.3-.5 22 14.9 2-3 3.9 2.6-2 3 5.7 3.9-3 4.5-5.7-3.9zm-8 3.6l4.2-6.2-6.2-4.2c-.8-.6-1.6-1.1-2.3-1.6-.7-.5-1-.8-1.1-.8 0 0 .1.1.2.4.1.2.3.5.4.9.2.3.4.7.6 1.1.2.4.4.8.5 1.3l3.7 9.1zM125.9 154.8c-1.7.7-3.6.9-5.5.7-2-.2-4.1-.8-6.3-1.9-2.2-1.1-4.4-2.6-6.7-4.6l-.7-.6c-2.2-2-4-4-5.3-6.1-1.3-2.1-2.1-4.1-2.5-6-.4-2-.4-3.8.1-5.6.5-1.8 1.3-3.3 2.6-4.7 1.3-1.4 2.7-2.4 4.4-3.1 1.7-.6 3.5-.9 5.5-.7 2 .2 4.1.8 6.3 1.9 2.2 1.1 4.4 2.6 6.6 4.6l.7.6c2.3 2 4 4.1 5.3 6.1 1.3 2.1 2.1 4.1 2.5 6.1.4 2 .4 3.8-.1 5.6-.5 1.8-1.3 3.3-2.6 4.7-1.1 1.4-2.6 2.4-4.3 3zm1.5-12.8c-.9-2.6-3-5.4-6.3-8.4l-.5-.4c-3.3-3-6.3-4.8-9-5.4-2.6-.6-4.7-.1-6.2 1.6-1.5 1.6-1.8 3.8-.9 6.3.9 2.6 3 5.3 6.3 8.3l.5.4c3.3 3 6.3 4.8 9 5.4 2.6.6 4.7.1 6.2-1.6 1.5-1.5 1.8-3.6.9-6.2zM150.3 116.8l-23.6-14.9 4.7-3.6 12.4 8c.5.3 1.1.7 1.6 1.1.6.4 1.1.8 1.7 1.2.5.4.9.7 1.3 1 .4.3.6.5.7.5 0 0-.1-.3-.3-.7-.2-.4-.4-.9-.6-1.5-.2-.6-.5-1.2-.8-1.9-.3-.7-.5-1.3-.7-1.9l-4.4-14 4.6-3.4 8 26.6 7 9.3-4.6 3.5-7-9.3zM154.4 81.9l15.6-9 2.6 4.4-10.6 6.1 7.7 13.3 8.9-5.2 2.6 4.4-8.9 5.2 3.5 6.1 11-6.4 2.6 4.4-16 9.3-19-32.6zM189.5 63.3l.7-.3 26 30.5-5.6 2.3-3.1-3.8-10.3 4.2.4 4.9-5.3 2.2-2.8-40zm7.2 27.9l7.5-3.1-5.7-7c-.3-.4-.7-.8-1.1-1.3-.4-.5-.7-1-1-1.4-.3-.4-.6-.8-.8-1.2-.2-.3-.4-.6-.4-.7 0 .1 0 .3.1.7.1.4.1.9.2 1.4.1.5.2 1.1.2 1.8.1.6.1 1.2.2 1.7l.8 9.1zM227.6 80.2c-.4.2-.8.4-1.2.5-.4.2-.8.3-1.3.4l-1.7.5 2.5 8.9-5.6 1.6L210 55.8l7.3-2.1c2-.6 3.8-.8 5.6-.6 1.8.2 3.4.6 4.9 1.5 1.5.8 2.8 2 3.9 3.5s2 3.3 2.6 5.4l.2.5c.7 2.6.9 5 .4 7.3-.5 2.2-1.4 4.1-2.8 5.7l9.1 9.2-6 1.7-7.6-7.7zm-5.5-3.2l1.7-.5c2.6-.7 4.3-2.1 5-4.1.7-2 .8-4.3 0-6.9l-.1-.4c-.8-2.7-2-4.6-3.6-5.8-1.6-1.2-3.8-1.4-6.4-.7l-1.7.5 5.1 17.9zM247.2 84.6c-1.6-.4-3.1-1.1-4.3-2.1l2.8-4.6c.8.6 1.8 1.1 2.8 1.5 1 .4 2.2.5 3.6.3 1.6-.2 2.8-.9 3.5-1.9.8-1 1.1-2.2.9-3.6l-.1-.4c-.2-1.1-.6-2-1.3-2.9-.7-.8-1.8-1.7-3.4-2.6l-4.1-2.5c-1-.6-1.8-1.2-2.6-1.8-.8-.6-1.5-1.3-2.1-1.9-.6-.7-1.1-1.5-1.5-2.3-.4-.9-.7-1.8-.8-2.9l-.1-.4c-.2-1.3-.2-2.5.1-3.6.3-1.1.8-2.2 1.5-3.1.7-.9 1.6-1.6 2.7-2.2 1.1-.6 2.3-1 3.7-1.2 1.8-.3 3.2-.3 4.5-.1 1.2.2 2.5.6 3.7 1.2l-2 4.8c-.7-.4-1.5-.7-2.3-.9-.8-.2-1.7-.2-2.8-.1-1.1.2-2 .6-2.7 1.4-.7.8-.9 1.7-.8 2.8v.3c.2 1.2.6 2.1 1.4 2.9.7.7 1.8 1.5 3.3 2.4l4.2 2.5c2.1 1.2 3.7 2.6 4.9 3.9 1.2 1.4 1.9 3.1 2.2 5.1l.1.5c.2 1.4.2 2.7-.1 4-.3 1.3-.8 2.4-1.6 3.4s-1.8 1.9-3 2.6c-1.3.7-2.7 1.2-4.5 1.5-2.3.5-4.2.4-5.8 0zM287.1 80.6c-1.6-.9-3-2.1-4.2-3.8-1.2-1.6-2-3.6-2.6-6-.6-2.4-.9-5-.8-8v-1c.1-3 .5-5.6 1.2-8 .7-2.3 1.7-4.2 3-5.8 1.2-1.6 2.7-2.8 4.4-3.5 1.7-.8 3.5-1.1 5.6-1.1 2 .1 3.9.5 5.5 1.4 1.6.9 3 2.1 4.2 3.8 1.2 1.6 2 3.6 2.6 6 .6 2.3.9 5 .8 8v1c-.1 3-.5 5.6-1.2 8-.7 2.3-1.7 4.3-3 5.9-1.2 1.6-2.7 2.8-4.4 3.5-1.7.8-3.5 1.2-5.6 1.1-2-.1-3.9-.6-5.5-1.5zm11.3-7.1c1.5-2.3 2.2-5.7 2.4-10.2v-.7c.1-4.5-.5-8-1.8-10.3-1.3-2.3-3.1-3.6-5.5-3.6-2.3-.1-4.2 1-5.7 3.3s-2.3 5.7-2.4 10.2v.7c-.1 4.5.5 8 1.8 10.3 1.3 2.3 3.2 3.6 5.5 3.6 2.4 0 4.3-1.1 5.7-3.3zM317.4 45.5l17.3 2.7-.8 5-11.6-1.8-2.3 15.2 10 1.6-.8 5-10-1.6-1.9 12-5.8-.9 5.9-37.2zM357.7 53.9l7.5 2.6c2.3.8 4.2 1.9 5.8 3.4 1.6 1.4 2.7 3.1 3.5 5.1.8 2 1.1 4.1 1.1 6.5 0 2.4-.5 4.9-1.5 7.6l-.3.8c-.9 2.7-2.1 4.9-3.5 6.8-1.4 1.9-3 3.4-4.9 4.4-1.8 1.1-3.8 1.7-5.9 1.9-2.1.2-4.4-.1-6.7-.9l-7.5-2.6 12.4-35.6zm-3.5 33.2c3 1.1 5.8.8 8.2-.9 2.4-1.7 4.4-4.5 5.8-8.5l.2-.5c1.4-4.1 1.7-7.5.9-10.2-.8-2.7-2.8-4.7-6.1-5.8l-1.7-.6-9 26 1.7.5zM386.1 95.7c-.4-.1-.8-.3-1.3-.4-.4-.2-.8-.3-1.2-.5L382 94l-4.1 8.2-5.2-2.6 16.9-33.7 6.8 3.4c1.8.9 3.3 2 4.5 3.3 1.2 1.3 2.1 2.8 2.6 4.4.5 1.6.7 3.3.5 5.2-.2 1.8-.8 3.7-1.8 5.7l-.2.5c-1.2 2.4-2.8 4.3-4.6 5.6-1.8 1.3-3.8 2.1-5.9 2.3l.5 12.9-5.6-2.8-.3-10.7zm-1.9-6.1l1.5.8c2.4 1.2 4.6 1.3 6.4.4 1.9-1 3.4-2.6 4.6-5.1l.2-.4c1.3-2.5 1.7-4.8 1.3-6.7-.4-2-1.8-3.6-4.2-4.8l-1.5-.8-8.3 16.6zM417 80.4l15 9.9-2.8 4.3-10.2-6.8-8.5 12.8 8.6 5.7-2.8 4.3-8.6-5.7-3.9 5.9 10.6 7-2.8 4.3-15.4-10.2L417 80.4zM448.7 103.1l.5.5-15.2 37.1-4.6-4 2-4.5-8.5-7.2-4.2 2.6-4.4-3.7 34.4-20.8zm-21.5 19.2l6.2 5.3 3.6-8.2c.2-.5.4-1 .7-1.5.3-.6.5-1.1.8-1.6.2-.5.5-.9.6-1.3.2-.4.3-.6.4-.7-.1 0-.3.2-.6.4s-.7.5-1.2.8c-.4.3-.9.7-1.5 1-.5.4-1 .7-1.5 1l-7.5 4.8zM466.5 119.5l.4.5-8.1 21.8 22.5-5.4.4.5-27.6 26.2-3.7-4.2 11.6-11.1c.3-.3.7-.6 1.1-1 .4-.4.8-.7 1.1-1 .4-.3.7-.6.9-.8l.4-.3s-.2.1-.6.2c-.3.1-.8.2-1.3.3-.5.1-1 .3-1.6.4-.6.1-1.1.3-1.6.4l-8.5 1.6-.3-.3 2.7-8.1c.2-.4.3-.9.5-1.5l.6-1.5c.2-.5.3-.9.5-1.2.1-.3.2-.5.2-.6l-.4.3c-.2.2-.5.5-.9.8-.3.3-.7.6-1.1 1-.4.3-.7.7-1.1 1l-12.4 10.1-3.7-4.2 30-23.9zM459 169.2c-.3-1.7-.3-3.3.1-4.8l5.3.6c-.2 1-.2 2.1-.2 3.1.1 1.1.5 2.2 1.2 3.3.9 1.3 1.9 2.1 3.2 2.5 1.2.3 2.4.1 3.6-.7l.4-.2c.9-.6 1.6-1.4 2-2.4.4-1 .8-2.4 1-4.2l.6-4.8c.1-1.1.3-2.2.5-3.1.2-1 .5-1.9.9-2.7.4-.8.9-1.6 1.5-2.3.6-.7 1.4-1.3 2.3-1.9l.3-.2c1.1-.7 2.2-1.2 3.4-1.4 1.2-.2 2.3-.2 3.4.1 1.1.3 2.2.8 3.2 1.5s1.9 1.7 2.7 2.9c1 1.5 1.6 2.8 2 4 .3 1.2.5 2.5.4 3.8l-5.2.2c0-.8 0-1.6-.2-2.5-.1-.8-.5-1.7-1.1-2.6-.6-.9-1.4-1.5-2.4-1.8-1-.3-1.9-.1-2.8.5l-.2.2c-1 .7-1.7 1.5-2 2.5-.4 1-.6 2.3-.8 4l-.5 4.9c-.3 2.4-.8 4.4-1.6 6.1-.8 1.6-2 3-3.7 4.2l-.5.3c-1.2.8-2.4 1.3-3.7 1.6-1.3.3-2.5.3-3.8 0-1.2-.3-2.4-.8-3.6-1.7-1.2-.8-2.2-2-3.2-3.4-1.5-2.2-2.3-4-2.5-5.6z"/><g><path class="st2" d="M318.1 477.8c-20.2 0-36.6 16.2-36.6 36.2 0 20 16.4 36.2 36.6 36.2 20.2 0 36.6-16.2 36.6-36.2 0-20-16.4-36.2-36.6-36.2m0 62.4c-14.6 0-26.4-11.7-26.4-26.2s11.8-26.2 26.4-26.2c14.6 0 26.4 11.7 26.4 26.2.1 14.5-11.8 26.2-26.4 26.2M267.8 484.5h-10v32.7h-32.3l45.4-65.4H259l-51.4 74.4h50.2v24.2h10v-24.2h6.6v-9h-6.6z"/></g><g><path class="st3" d="M318.2 477.6c-20.2 0-36.6 16.2-36.6 36.2 0 20 16.4 36.2 36.6 36.2 20.2 0 36.6-16.2 36.6-36.2 0-20-16.4-36.2-36.6-36.2m0 62.4c-14.6 0-26.4-11.7-26.4-26.2s11.8-26.2 26.4-26.2c14.6 0 26.4 11.7 26.4 26.2.1 14.5-11.8 26.2-26.4 26.2M267.9 484.3h-10V517h-32.3l45.5-65.4h-12L207.7 526h50.2v24.2h10V526h6.6v-9h-6.6z"/></g><path class="st0" d="M445.8 287.2c0 87.2-70.7 157.8-157.8 157.8-87.2 0-157.8-70.7-157.8-157.8S200.8 129.4 288 129.4c87.2 0 157.8 70.6 157.8 157.8"/><path d="M242 283c-45.9 0-84.9 29.6-98.9 70.8 25.8 53.2 80.4 89.9 143.6 89.9 16.5 0 32.5-2.5 47.5-7.2 7.8-14.6 12.3-31.4 12.3-49.1C346.4 329.8 299.6 283 242 283" fill="#d2d3d4"/><path d="M449.1 282.9s-1.5-.7-2.9-1.4c-1.7-.8-3.3-1.8-2.8-1.9.8-.1 2.2-1.7 2.7-2.5v-.7c-.9-1.4-5.4-7.5-6.4-6.8-1.1.8-10 2.6-10 2.6s-.8 0 1.6-3.1 6.7-2.9 6.7-2.9l-2.6-7.2s.5-1.1-5.1-1.1-14.1 7.9-17 7.9c-2.9 0-5.6-.7-5.6-.7s3.3-4.6 5.4-4.6c2.1 0 4.4 0 5.7-1.8 1.3-1.8 4.3-2.9 4.3-2.9s-2.8-1.5-4.8-2-2-4.8-3.1-5.1c-1.1-.3-1.1-1.3-3.1-1.3s-4.9 5.1-6.2 3.8c-1.3-1.3-6.6-3.6-6.6-3.6.3-1.3 5.4-4.9 5.4-4.9-1.1-2.8-6.2-2.9-6.2-2.9 2.5-2.5 6.2-2.3 9.8-3.4 3.6-1.1 7.9-4.6 7.9-4.6.7 1.6-.2 3.6-.2 3.6s4.4 2.6 7.2 2.6 4.8-1.8 7.9-1.8c3.1 0 3.9.8 3.9.8l-5.1 3.1s6 1.7 9.8 1.8c-.7-1.9-1.2-3.9-1.8-5.8-1-3.4-1.8-6.9-2.7-10.3h-.1c-6.5 1.1-12 4.4-12 4.4s1.6-2.6 6.1-6.9c1.1-1.1 2.5-1.8 3.9-2.3.2-.1.5-.2.8-.2-.2-.7-.4-1.5-.6-2.2-.4-1.3-.8-2.5-1.2-3.7-1.1.3-2.7-1.3-3.3-1.9-.1-.1.1-.3.2-.1.7.7 1.8 1.9 2.9 1.9h.1c-.4-1.1-.8-2.3-1.3-3.4-.8-.2-1.7-.4-2.6-.6-4.1-.9-8-1.6-7.8-1.7.5-.3 5.1-1.6 5.1-1.6.2-.1.5-.2.7-.2.8-.3 1.5-.6 2.1-.8-1.1-2-2.3-3.9-3.6-5.7-.4-.2-.6-.3-.6-.4 0 0 .1-.1.2-.1-.2-.2-.3-.5-.5-.7-1.7-2.4-3.5-4.6-5.8-6.5-2.1-1.8-4.3-3.4-6.3-5.1-1-.8-2.1-1.8-3.1-2.9-6.8 6.7-14.3 17.7-14.3 17.7 0-7.5 11.4-23.8 11.5-23.9-3 0-8.7 8-9.5 5.9-.8-2 4.6-8.7 4.8-11-4-4.1-8.1-7.9-12.5-11.6-.3-.3-.6-.5-.9-.7 1.5 1.7 4.5 7.2 4.5 25.2 0 24.1-5.4 33.9-7.5 33.9-2.1 0-1.1-7-2-12.1-.8-5.1-5.1-10.6-4.4-8 .7 2.6 1 9-.2 9.8-1.1.8-3.1-13.4-5.6-16.2-2.5-2.8-5.9-.7-5.9-.7l-2.3-1.8c-6.2-4.3-11.6-3.8-11.6-3.8l1.1 9.3s-3.1-8.2-7.7-8.4c-4.6-.2-15.6 1-15.6 1 7.5 2.5 25.2 15.6 25.2 15.6-4.8-3.1-20.6-7.2-25.2-7.2-4.6 0-9.3 2.6-10.8.7-1.5-2-6.9-4.1-6.9-4.1 1.6-1 5.2 1.6 6.1 0 .8-1.6 12.6-8.4 17.2-11.1 4.5-2.7 4.6-4.5 4.6-4.6 0 .1.1.5 3.8.5 3.9 0 10.8-15.1 10.8-15.1l-.3 7.4c2.3-.3 6.4-9.5 8.8-9.5 2.5 0 .2 2.8 2.9.7 2.8-2.1 4.4-4.1 4.4-4.1-40.8 0-49.3 19.2-50.8 22.6-1.5 3.4-2.1 1.1-2.1 1.1s5.7-14.6 9.7-30.3c2.1-8.4 5.2-14.9 7.5-19.2-1.4-.5-2.9-.9-4.3-1.3-1.5 1.4-2.6 2.6-2.6 2.6.5-.9.9-2 1.2-3-1.7-.5-3.5-.9-5.3-1.4-.5 1-.6 1.8-.6 1.8-.2-.5-.3-1.2-.4-2-2-.5-4-.9-6-1.3-3.4 3.6-2.9 18.8-2.9 18.8-2.1-.8-1.8-8-2.6-10.2-.8-2.1-4.3-4.3-3.4-3.4.8.8.2 9.7.2 9.7-.8-1.5-4.9-3.9-4.9-3.9-8.2 2.1-16.8 22.3-16.8 22.3-15.5-22.9-21.6-22.5-20.7-22.1.9.4 2 8.7 1.1 8.3-.9-.4-8.5-11.1-8.5-11.1-4.6-1.1-5.9 1.3-5.9 1.3 23.2 24 21.6 34.7 21.6 34.7 8.1 0 13.3 5.2 13.3 7.4-2.6 0-15.9-6.6-32.1-6.6-32.1 0-47.4 18.1-47.4 18.1l12.2-.9c5.9-7 8.1-5.9 8.1-5.9-.7 1.5.4 4.2.4 4.2s5.7-7.2 7.9-9.4 2.4-.2 2.2 1.1c-.2 1.3-9.4 10-9.4 11.8 0 1.7 3.3 3.1 6.8 4.4 2-1.3 11.8-11.1 11.8-11.1s-3.5 5.2-3.5 7.6c0 2.4 3.9 3.5 3.9 3.5 1.7-6.6 9.6-14.4 9.6-14.4-3.9 6.3-5.9 15.3-5.9 15.3 12.2 3.5 9.6 8.1 9.6 8.1-38.4 6.3-38 20.3-38 20.3l2.2-1.7c2.8-3.5 8.3-5.2 8.3-5.2-7.4 8.1-12.4 16.8-15 23.5 3.4 1.2 6.7 2.5 9.9 4 .8-1.1 1-1.7 1-2 .3.1 1.2.2 3.9.2 5 0 12.2-4.1 15.1-5.5 2.8-1.3 5.2-5 5.2-5 1.1-.2 3.7-6.6 3.7-6.6s-1.1 7 .4 7 4.8-4.4 8.3-4.4c3.5 0 4.4 1.1 4.4 1.1-10.3 9-8.7 18.6-8.7 18.6s2.6-2 4.4-3.3c1.7-1.3 1.3 1.7 1.3 1.7l-6.6 7.4c0 2 1.7 3.1 1.7 3.1 4.8-7.6 13.8-10 8.3-6.1-5.1 3.7-9.5 11.6-10 18.9 2.6 3.1 5 6.5 7.2 9.9l.2-.2c-.4-6.6 2.6-10.9 2.6-10.9-.7 2 1.1 7.2 1.1 7.2.7-1.3 5.9-7.6 5.9-7.6 0-2.8.2-10.7 1.3-10.7s3.3 7.4 3.3 7.4 5.2-5.7 5.2-11.1c0-5.5-5.7-18.1-5.7-18.1 2.4-.4 12.7 14 12.7 14 1.7-1.5 5.7-7.6 5.7-7.6-.2-1.3-3.7-5.5-2.6-5.2 1.1.2 5.2 2.8 5.2 2.8 2-2.8 3.3-10.3 3.3-10.3 7 7 24.9 42.6 24.9 42.6-6.3 7.9-3.3 15.7-3.3 15.7 1.1-2.4 3.9-2.8 3.9-2.8-4.1 7.4-4.1 13.3-4.1 13.3 3.1-.4 12.2-5.5 12.2-5.5 11.4 37.6 23.2 90 23.2 96.1 0 6.1-6.6 27.5-8.3 27.1-1.4-.4-7-5.4-11.3-9.1-1-.8-1.9-1.6-2.6-2.2-4.4-3.5-14.9-9.2-17.9-9.2-3.1 0-4.8.4-7 3.1-2.2 2.6-4.8 1.3-7 1.3s-7.9-6.6-11.4-10.9c-3.5-4.4-7-12.2-13.1-14-6.1-1.7-3.5-1.3-4.8 2.6s-5.2 7.4-10.9 15.3-9.6 10.9-14 17-9.6 6.6-15.3 9.6c-1.2.6-2.3 1.3-3.3 1.9h-29.4l.6.4c23.2 13.1 49.9 20.6 78.5 20.6 16.5 0 32.5-2.5 47.5-7.2 6.4-2 12.6-4.4 18.6-7.1 4.5-2 8.8-4.3 13-6.7 3.1-1.8 6.1-3.7 9.1-5.6-.1-7.5-.4-16.8-.3-17.2 9.5-22.9 12.9-60.3 12.9-88.1 0-27.8-2.3-29.8-2.3-37.5v-11.3c28.8 4.3 50.1 28.7 50.1 28.7l1.8-2.8c.9-.6 5.1 2.8 8.7 5.6 2.8 2.2 5.1 4 5.4 3.6.4-1.9-2.2-16.1-2.2-16.1zm-173.8-80.6l-3.7-.2c-1.3-4.2 3.9-12.7 3.9-12.7l-.2 12.9zm3.7-.5c-.2-3.3 2.8-7.6 2.8-7.6.2 1.1 2.4 7.4 2.4 7.4l-5.2.2zm21.6-45.2s1.7-3.1 3.1-3.5c1.3-.4 8.7 8.7 10.3 12.7-8.8-6.3-13.4-9.2-13.4-9.2zm43.8 59.1c0-2.1-2.6-6.2-2.6-6.2 2.6 0 14.6 8.8 14.6 8.8 1.1-.5 2.5-2.5 2.5-2.5 1.1.7 6.2 5.1 6.2 5.1-4.9-1.5-28-4.4-28-4.4 2.7-1.6 7.3-.8 7.3-.8zm-5.6 45.6c-5.4-13.8-19.5-31.3-19.5-31.3s3.9 1.6 4.3.7c.3-1 1.3-2.9 1.3-2.9 3.3 4.9 13.1 10.8 16.7 11.1 3.6.3 4.9-.8 4.9-.8-2.1-1-1.3-3.6-1.3-3.6 3.4.7 7.2 7 7.2 7 .8-2 1-5.7 1-5.7s2 .3 4.6 1.1c2.6.8 6.2 1.1 6.4 2.3.2 1.1-2.3 1.8-6.4 4.1-4.1 2.2-19.2 18-19.2 18zm33.3 103.8s-16.9-65.9-23.3-79.3l1.6-3.3s2.3 5.2 2.5 7.4c0 0 .7-11.1-1.1-15.4 0 0 5.2 9 5.9 12.8 0 0 8.5-6.4 8.5-8.8 0-2.5-4.9-12.9-4.9-12.9s4.3 2.5 5.4 5.4c0 0 6.4-10.2 8-10.2 0 0 3.3 12.3 3.3 41.8 0 50.7-5.9 62.5-5.9 62.5zm-1.5-141.4c-.5-1.6-4.9-5.7-4.9-5.7s7-1.6 8-1.1 4.6 6.9 4.6 6.9-7.2 1.6-7.7-.1zm49.9-9.8s-.9 3.7-4.1 4.6c-3.3.9-5 .2-5 .2s-7.6 9-18.6 11.4c0-.1 10.5-13.6 27.7-16.2z"/><path d="M288 133.1c20.9 0 41.2 4.1 60.3 12.2 18.4 7.8 35 19 49.2 33.2 14.2 14.2 25.4 30.8 33.2 49.2 8.1 19.1 12.2 39.4 12.2 60.3s-4.1 41.2-12.2 60.3c-7.8 18.4-19 35-33.2 49.2-14.2 14.2-30.8 25.4-49.2 33.2-19.1 8.1-39.4 12.2-60.3 12.2s-41.2-4.1-60.3-12.2c-18.4-7.8-35-19-49.2-33.2-14.2-14.2-25.4-30.8-33.2-49.2-8.1-19.1-12.2-39.4-12.2-60.3s4.1-41.2 12.2-60.3c7.8-18.4 19-35 33.2-49.2 14.2-14.2 30.8-25.4 49.2-33.2 19.1-8.1 39.4-12.2 60.3-12.2m0-4.6c-88.1 0-159.5 71.4-159.5 159.5S199.9 447.5 288 447.5 447.5 376.1 447.5 288 376.1 128.5 288 128.5"/><path d="M526.5 242H348.7c-2.1 0-3.1-2.6-1.5-4 8.3-6.9 11.3-19.9 2.2-32.2-.1-.2-.3-.4-.5-.5-17.8-13.3-37.3-.9-37.3 16.1 0 6.7 3 12.6 7.7 16.6 1.6 1.4.6 4-1.5 4H38v0c1.3 1.9.3 59.5 0 78.7v3.9c0 1.2 1 2.3 2.3 2.3h486.2c1.2 0 2.3-1 2.3-2.3v-80.3c-.1-1.3-1.1-2.3-2.3-2.3z" stroke="#000" stroke-width="7.172" stroke-miterlimit="10"/><g><g id="_xAE__2_"><path class="st0" d="M532.4 310.1c-3.1 0-5.5 2.5-5.5 5.5 0 3.1 2.5 5.5 5.5 5.5s5.5-2.5 5.5-5.5c0-3.1-2.5-5.5-5.5-5.5zm0 9.7c-2.3 0-4.2-1.9-4.2-4.2 0-2.3 1.9-4.2 4.2-4.2 2.3 0 4.2 1.9 4.2 4.2 0 2.3-1.9 4.2-4.2 4.2z"/><path class="st0" d="M534.6 314.7c0-1.3-.6-1.8-1.9-1.8h-2.1v5.7h1v-1.9h1.3l.8 1.9h1.1l-.9-2.2c.4-.3.7-.8.7-1.7zm-1.9 1h-1.2v-1.9h1.2c.6 0 .9.3.9.9 0 .6-.2 1-.9 1z"/></g><path id="N_4_" class="st0" d="M496.3 247.1l.1 22.2-9.2-22.2h-28.6v74h27.1v-28.3l11.6 28.3h26.6v-74z"/><path id="A_2_" class="st0" d="M423.8 321.1h30.7L441.4 247h-46.9l-12.1 74.1h30.3l1.6-17.6h7.8l1.7 17.6zm-8-33.9l2-18.8h1.1l2 18.8h-5.1z"/><g id="M-Dot_2_"><ellipse transform="rotate(-1.865 333.338 221.367) scale(1.00003)" class="st3" cx="333.3" cy="221.4" rx="21.7" ry="21.7"/><path class="st3" d="M289.5 247.1v74h26.3v-27.5l10 27.5h15.1l10-27.5v27.5h26.2v-74z"/></g><path id="N_3_" class="st0" d="M256.6 247.1v22.2l-9.1-22.2h-28.6v74H246v-28.3l11.6 28.3h26.6v-74z"/><path id="O_2_" class="st0" d="M198.9 246.2h-36.5c-8.1 0-14.8 6.8-14.8 15.1v45.6c0 8.3 6.6 15.1 14.8 15.1h36.5c8.1 0 14.8-6.8 14.8-15.1v-45.6c0-8.3-6.7-15.1-14.8-15.1zm-13.6 54.6c0 2.6-2.1 4.8-4.7 4.8s-4.7-2.1-4.7-4.8v-33.3c0-2.6 2.1-4.8 4.7-4.8s4.7 2.1 4.7 4.8v33.3z"/><path id="R_2_" class="st0" d="M133 281h.4c5.9 0 10.6-7.6 10.6-17 0-9.3-4.7-16.9-10.5-17H77.6v74h30.6v-30.7h3.6c2 0 3.6 2.1 3.6 4.7v26h28.1v-23.1c.1-9.3-4.7-16.3-10.5-16.9zm-22.7-7.4h-2.1v-10.3h2.1c2.8 0 5.2 2.3 5.2 5.2s-2.3 5.1-5.2 5.1z"/><path id="I_2_" class="st0" d="M72.4 321.1H43.6v-74h28.7z"/></g><g><path class="st0" d="M101.3 402.3l-2.5-3.9 4.3-2.8 5.7 8.7-31.6 20.6L74 420l27.3-17.7zM97.2 434.8c1.2-.2 2.3-.3 3.3-.4 1-.1 1.6-.1 1.8-.1-.8-.2-1.5-.5-2.2-.9-.6-.4-1.1-.9-1.6-1.5-.9-1.2-1.4-2.4-1.7-3.7s-.2-2.7.1-4c.3-1.3.9-2.6 1.8-3.9.9-1.3 2-2.4 3.3-3.4l.4-.3c1.5-1.1 3-1.9 4.5-2.4s3-.6 4.5-.5c1.5.2 2.8.6 4.1 1.4 1.3.8 2.5 1.8 3.5 3.2s1.7 2.8 2 4.2c.3 1.5.4 2.9.1 4.4-.3 1.5-.9 2.8-1.7 4.2-.9 1.3-2.1 2.6-3.5 3.6l-.4.3c-1.7 1.2-3.4 2.2-5.2 2.8-1.8.7-3.8 1.1-6 1.4l-15.7 2.2-3.6-4.8 12.2-1.8zm10-2.3c1.7 0 3.4-.7 5.2-2.1l.4-.3c.9-.6 1.6-1.4 2.2-2.1.6-.8 1-1.6 1.3-2.4.3-.8.3-1.6.2-2.4-.1-.8-.4-1.5-.9-2.2-.5-.7-1.1-1.2-1.8-1.5-.7-.3-1.5-.5-2.3-.4-.8 0-1.7.2-2.6.6-.9.4-1.8.9-2.6 1.5l-.4.3c-1.7 1.3-2.9 2.8-3.4 4.4-.5 1.6-.3 3.1.8 4.5.8 1.4 2.2 2.1 3.9 2.1zM133.6 444.2l-9.5-10.5 3.8-3.4 14.5 16-.5.4-36.2 15.2-4-4.3 31.9-13.4zM124.6 480.5c-.7-1.4-1-2.8-1.1-4.3-.1-1.4.2-2.8.7-4.2.5-1.4 1.3-2.6 2.2-3.8l.4-.5c1.6-1.8 3.3-3 5.2-3.6 1.8-.6 3.7-.6 5.6-.1-.3-1.3-.4-2.6-.2-3.9.2-1.4.9-2.7 2-4l.3-.4c.9-1 1.9-1.8 3-2.3 1.1-.5 2.2-.8 3.4-.8 1.2 0 2.3.1 3.5.6 1.2.4 2.3 1.1 3.3 2 1 .9 1.8 1.9 2.4 3 .6 1.1.9 2.3 1.1 3.4.1 1.2 0 2.3-.3 3.5-.4 1.2-1 2.2-1.8 3.3l-.3.4c-1.1 1.3-2.4 2.2-3.7 2.6-1.3.4-2.6.5-4 .3.8 1.8 1 3.7.8 5.6-.3 1.9-1.2 3.8-2.8 5.6l-.4.5c-1 1.2-2.2 2.1-3.5 2.8-1.3.7-2.6 1.1-4.1 1.3-1.4.2-2.9 0-4.4-.5-1.5-.5-2.9-1.3-4.3-2.5-1.3-1.3-2.3-2.6-3-4zm10.9 1.4c1.6-.3 3.1-1.2 4.5-2.7l.3-.3c1.4-1.6 2.1-3.2 2.1-4.9 0-1.6-.6-3-1.9-4.1-1.3-1.1-2.8-1.6-4.4-1.4-1.6.2-3.1 1.2-4.5 2.8l-.3.3c-1.4 1.6-2.1 3.2-2.1 4.8 0 1.6.7 3 2 4.2 1.2 1.1 2.7 1.5 4.3 1.3zm11.1-14.5c1.2-.2 2.3-.8 3.2-1.8l.2-.3c.9-1.1 1.4-2.2 1.4-3.4 0-1.2-.5-2.2-1.5-3.1-1-.8-2.1-1.2-3.3-1-1.2.2-2.3.8-3.2 1.9l-.2.3c-.9 1-1.3 2.1-1.4 3.4 0 1.3.4 2.3 1.4 3.2s2.2 1 3.4.8z"/></g><g><path class="st0" d="M432.2 486.7l-1.2-20.4c-.2-2.3-.4-4.3-.7-6-.3-1.7-1-3.2-1.9-4.5l-.3-.4c-1-1.3-2.1-2-3.3-2.2-1.2-.2-2.4.1-3.5 1-1 .7-1.6 1.7-1.8 2.8-.2 1.1-.3 2.3-.1 3.5l-5.3.5c-.8-4.5.7-8.2 4.4-11 2.5-2 5.1-2.8 7.6-2.5 2.5.3 4.7 1.6 6.5 4l.4.5c.7.9 1.2 1.8 1.6 2.8.4 1 .7 2.1 1 3.3.2 1.2.4 2.5.5 3.8.1 1.4.3 2.9.4 4.5l.7 10.9 9.4-7.2 3.1 4-17 13.1-.5-.5zM460.8 463.4c-1.8.5-3.6.5-5.6.2-2-.4-4-1.2-6.1-2.5-2.1-1.3-4.2-3-6.2-5.2l-.6-.7c-2-2.2-3.6-4.4-4.7-6.6-1.1-2.2-1.7-4.3-2-6.3-.2-2 0-3.8.6-5.5.6-1.7 1.6-3.2 3-4.4 1.4-1.3 3-2.2 4.7-2.6 1.7-.5 3.6-.5 5.6-.2 2 .4 4 1.2 6.1 2.5s4.1 3 6.2 5.2l.6.7c2.1 2.2 3.6 4.4 4.7 6.6 1.1 2.2 1.7 4.3 1.9 6.3.2 2 0 3.8-.6 5.5-.6 1.7-1.6 3.2-3 4.5-1.3 1.1-2.9 2-4.6 2.5zm2.7-12.6c-.6-2.7-2.5-5.6-5.5-8.9l-.5-.5c-3-3.3-5.8-5.4-8.4-6.2-2.6-.8-4.7-.5-6.3 1s-2.1 3.6-1.5 6.2c.6 2.6 2.5 5.6 5.5 8.9l.5.5c3 3.3 5.8 5.4 8.4 6.2 2.6.9 4.7.6 6.3-1 1.6-1.5 2.1-3.6 1.5-6.2zM458.5 421.1l-3.1 3.4-3.8-3.5 7.1-7.7 27.7 25.5-3.9 4.3-24-22zM496.3 426.7c-1.4.8-2.8 1.2-4.2 1.3-1.4.1-2.9 0-4.3-.5-1.4-.4-2.7-1.1-3.9-2l-.5-.4c-1.9-1.5-3.2-3.1-3.9-5-.7-1.8-.8-3.7-.4-5.6-1.2.4-2.5.5-3.9.4-1.4-.1-2.7-.7-4.1-1.8l-.4-.3c-1.1-.8-1.9-1.8-2.4-2.8-.6-1.1-.9-2.2-1-3.3-.1-1.2 0-2.3.4-3.6.4-1.2 1-2.4 1.8-3.4.8-1.1 1.8-1.9 2.9-2.6 1.1-.7 2.2-1.1 3.4-1.3 1.1-.2 2.3-.1 3.5.2 1.2.3 2.3.8 3.4 1.6l.4.3c1.4 1.1 2.3 2.2 2.8 3.5.5 1.3.7 2.6.6 3.9 1.8-.9 3.6-1.2 5.5-1.1 1.9.2 3.9 1 5.8 2.5l.5.4c1.2.9 2.2 2 3 3.3.8 1.2 1.3 2.6 1.5 4 .2 1.4.1 2.9-.3 4.4-.4 1.5-1.2 3-2.3 4.5-1.3 1.6-2.6 2.7-3.9 3.4zM482 405.4c-.3-1.2-1-2.2-2-3.1l-.3-.2c-1.1-.9-2.3-1.3-3.5-1.2-1.2.1-2.2.6-3 1.6-.8 1-1.1 2.1-.8 3.3.2 1.2.9 2.2 2.1 3.1l.3.2c1.1.8 2.2 1.2 3.5 1.2 1.3 0 2.3-.6 3.1-1.6.6-.9.9-2 .6-3.3zm15.1 10.4c-.3-1.6-1.3-3-3-4.3l-.4-.3c-1.7-1.3-3.4-1.9-5-1.8-1.6.1-3 .8-4 2.1-1.1 1.4-1.4 2.9-1.1 4.5.3 1.6 1.3 3.1 3 4.4l.3.3c1.7 1.3 3.3 1.9 4.9 1.8 1.6-.1 3-.8 4.1-2.2 1.2-1.4 1.5-2.9 1.2-4.5z"/></g></svg>